<svg width="29" height="29" viewBox="0 0 29 29" fill="none" xmlns="http://www.w3.org/2000/svg">
<g clip-path="url(#clip0)">
<path d="M9.71773 20.6699L8.62373 18.8949L6.31373 19.3099L9.35173 13.9219H3.42773V28.0919H13.5217V13.9219L9.71773 20.6699Z" fill="white"/>
<path d="M26.3311 7.16H19.6281C20.0201 6.958 20.3701 6.747 20.6801 6.523C21.8721 5.669 22.5051 4.587 22.5031 3.513C22.5031 2.632 22.0861 1.37 21.4801 0.844C20.8731 0.312 20.0681 0 19.2091 0C18.2911 0 17.4381 0.315 16.7071 0.805C15.6081 1.541 14.7481 3.135 14.1351 4.351C14.1041 4.412 14.0731 4.471 14.0431 4.53C13.8191 4.061 13.5571 3.122 13.2601 2.694C12.7401 1.952 12.1151 1.296 11.3811 0.805C10.6521 0.315 9.80014 0 8.88314 0C7.96914 0.003 7.13214 0.386 6.50614 0.977C5.88314 1.562 5.44714 2.879 5.44314 3.82C5.43914 4.369 5.59914 4.944 5.93014 5.467C6.34614 6.122 7.00514 6.693 7.91514 7.16H1.74414L1.75814 12.795H13.3461V7.16H14.7581V12.795H26.3481L26.3311 7.16ZM8.31514 5.398C7.85014 5.104 7.56414 4.809 7.39614 4.544C7.23314 4.281 7.17614 3.819 7.17614 3.592C7.17214 3.213 7.36114 2.548 7.69714 2.236C8.02514 1.923 8.47114 1.73 8.87114 1.73H8.88314C9.39814 1.734 9.90814 1.906 10.4221 2.245C11.1871 2.75 11.9081 4.123 12.4091 5.129C12.6711 5.641 12.8711 6.176 13.0061 6.699C10.6851 6.459 9.18514 5.947 8.31514 5.398ZM16.2481 4.173C16.6661 3.574 17.1591 2.586 17.6701 2.245C18.1781 1.906 18.6941 1.734 19.2091 1.73H19.2141C19.6431 1.73 20.0561 1.898 20.3371 2.147C20.6191 2.4 20.7701 2.863 20.7701 3.189C20.7641 3.574 20.5651 4.46 19.6661 5.117C18.8131 5.739 17.3321 6.376 15.0551 6.822C15.2701 5.919 15.6911 4.963 16.2481 4.173Z" fill="white"/>
<path d="M21.7907 19.2869L19.4817 18.8949L18.3917 20.6909L14.6367 14.0129V28.0919H24.6797V13.9219H18.7557L21.7907 19.2869Z" fill="white"/>
</g>
<defs>
<clipPath id="clip0">
<rect width="28.092" height="28.092" fill="white"/>
</clipPath>
</defs>
</svg>
