<svg width="210" height="214" viewBox="0 0 210 214" fill="none" xmlns="http://www.w3.org/2000/svg">
<mask id="path-1-inside-1" fill="white">
<path d="M120.302 209.874C145.678 206.118 168.808 193.159 185.327 173.443C201.845 153.727 210.61 128.618 209.967 102.854C209.324 77.0908 199.317 52.4547 181.835 33.5958C164.354 14.7369 140.606 2.95965 115.075 0.486783L115.014 1.1182C140.392 3.5762 163.997 15.2826 181.373 34.0282C198.75 52.7737 208.697 77.2616 209.336 102.87C209.975 128.479 201.263 153.437 184.844 173.035C168.424 192.632 145.434 205.513 120.21 209.246L120.302 209.874Z"/>
</mask>
<path d="M120.302 209.874C145.678 206.118 168.808 193.159 185.327 173.443C201.845 153.727 210.61 128.618 209.967 102.854C209.324 77.0908 199.317 52.4547 181.835 33.5958C164.354 14.7369 140.606 2.95965 115.075 0.486783L115.014 1.1182C140.392 3.5762 163.997 15.2826 181.373 34.0282C198.75 52.7737 208.697 77.2616 209.336 102.87C209.975 128.479 201.263 153.437 184.844 173.035C168.424 192.632 145.434 205.513 120.21 209.246L120.302 209.874Z" stroke="#747474" stroke-width="2" stroke-dasharray="2 3" mask="url(#path-1-inside-1)"/>
<path d="M121.5 209.5H116M116 209.5L119.765 206M116 209.5L119.765 213" stroke="#747474"/>
</svg>
