<svg width="33" height="33" viewBox="0 0 33 33" fill="none" xmlns="http://www.w3.org/2000/svg">
<g clip-path="url(#clip0)">
<path d="M29.2613 28.3977L23.044 17.6291L28.121 15.7997C28.4457 15.6826 28.6628 15.3751 28.6643 15.0299C28.6658 14.6847 28.4514 14.3753 28.1277 14.2555L13.7457 8.93194C13.5162 8.84712 13.2612 8.86871 13.0493 8.99098C12.8375 9.11331 12.6912 9.32355 12.6501 9.56467L10.0723 24.6799C10.0144 25.0191 10.1739 25.3584 10.472 25.5303C10.77 25.7022 11.1437 25.6702 11.4082 25.4501L15.7792 21.8149L22.0002 32.5901C22.1092 32.7789 22.2888 32.9167 22.4993 32.9731C22.5694 32.9919 22.6408 33.0011 22.7121 33.0011C22.8551 33.0011 22.9971 32.9638 23.1231 32.891L28.9605 29.5207C29.3536 29.2936 29.4883 28.7909 29.2613 28.3977ZM23.0129 31.056L16.7152 20.1482C16.5941 19.9382 16.3865 19.7926 16.1479 19.7499C16.0998 19.7413 16.0515 19.7371 16.0034 19.7371C15.813 19.7371 15.6266 19.8035 15.4777 19.9272L12.0668 22.7641L14.1042 10.8177L25.4463 15.0161L21.5621 16.4156C21.3331 16.4981 21.1525 16.6779 21.0687 16.9066C20.9851 17.1352 21.0072 17.3892 21.1288 17.6001L27.4265 28.5079L23.0129 31.056Z" fill="#0D151B"/>
<path d="M9.30505 7.95743L4.66384 6.7138C4.22523 6.59617 3.77464 6.85657 3.65714 7.29504C3.53958 7.73352 3.79984 8.18424 4.23838 8.30174L8.87972 9.54536C8.95101 9.56444 9.02249 9.57366 9.09294 9.57366C9.45587 9.57366 9.788 9.33144 9.88642 8.96412C10.0039 8.52571 9.74359 8.07499 9.30505 7.95743Z" fill="#0D151B"/>
<path d="M16.2434 0.028233C15.8046 -0.0893297 15.3542 0.170997 15.2367 0.609472L13.9931 5.25069C13.8755 5.6891 14.1358 6.13988 14.5743 6.25738C14.6456 6.27646 14.7171 6.28568 14.7875 6.28568C15.1505 6.28568 15.4826 6.04346 15.581 5.67614L16.8246 1.03493C16.9422 0.596453 16.6819 0.145796 16.2434 0.028233Z" fill="#0D151B"/>
<path d="M11.7742 5.17715L9.92461 1.97363C9.69754 1.58053 9.19513 1.44576 8.80177 1.67276C8.4086 1.89983 8.27389 2.40244 8.5009 2.7956L10.3504 5.99912C10.5028 6.2628 10.7789 6.41027 11.0631 6.41027C11.2025 6.41027 11.3438 6.37469 11.4733 6.29992C11.8665 6.07292 12.0012 5.57031 11.7742 5.17715Z" fill="#0D151B"/>
</g>
<defs>
<clipPath id="clip0">
<rect width="33" height="33" fill="white"/>
</clipPath>
</defs>
</svg>
