<svg width="33" height="33" viewBox="0 0 33 33" fill="none" xmlns="http://www.w3.org/2000/svg">
<path d="M6.29817 21.5213C6.37619 22.2897 6.79191 22.9789 7.3835 23.4444C7.05234 23.8341 6.85189 24.338 6.85189 24.8882V26.9508C6.85189 27.8398 7.365 28.6056 8.1171 28.9653C8.07448 29.1708 8.05191 29.3835 8.05191 29.6014C8.05191 31.3257 9.45471 32.7285 11.1789 32.7285C12.9032 32.7285 14.306 31.3257 14.306 29.6014C14.306 29.4601 14.2957 29.3212 14.2774 29.1848H19.4209C19.4027 29.3212 19.3923 29.4601 19.3923 29.6014C19.3923 31.3257 20.7951 32.7285 22.5194 32.7285C24.2436 32.7285 25.6464 31.3257 25.6464 29.6014C25.6464 27.8771 24.2436 26.4743 22.5194 26.4743C21.4734 26.4743 20.5465 26.9911 19.9784 27.7821H13.7198C13.1518 26.9911 12.2248 26.4743 11.1789 26.4743C10.1739 26.4743 9.27884 26.9514 8.70635 27.6903C8.43704 27.5529 8.25436 27.2741 8.25436 26.9509V24.8883C8.25436 24.4302 8.62727 24.0576 9.08567 24.0576C9.08781 24.0576 9.08988 24.0573 9.09202 24.0572C9.09629 24.0573 9.10057 24.0576 9.10477 24.0576H25.5026C26.8585 24.0576 28.2628 23.0524 28.6999 21.7691L32.8667 9.53435C33.1025 8.8421 33.0223 8.1441 32.6466 7.61931C32.2709 7.09451 31.6361 6.79347 30.9048 6.79347H29.4093L24.9026 2.26519C24.2019 1.56466 23.0662 1.55858 22.3574 2.24623L14.7519 4.29198L12.7103 0.631288C12.5217 0.293046 12.0946 0.171815 11.7562 0.360374L7.67279 2.63777C7.51028 2.72834 7.39052 2.87983 7.33975 3.05877C7.28892 3.23771 7.3113 3.42947 7.40194 3.59192L9.18747 6.7934H7.49592C7.04486 6.7934 6.61998 6.90862 6.25155 7.12463L5.92039 3.81374C5.88452 3.45519 5.58281 3.1822 5.22253 3.1822H0.701333C0.313997 3.1822 0 3.4962 0 3.88354C0 4.27087 0.313997 4.58487 0.701333 4.58487H4.58785L6.29817 21.5213ZM22.5195 27.8769C23.4704 27.8769 24.2439 28.6506 24.2439 29.6014C24.2439 30.5522 23.4704 31.3258 22.5195 31.3258C21.5687 31.3258 20.7951 30.5522 20.7951 29.6014C20.7951 28.6505 21.5687 27.8769 22.5195 27.8769ZM11.179 27.8769C12.1298 27.8769 12.9034 28.6506 12.9034 29.6014C12.9034 30.5522 12.1298 31.3258 11.179 31.3258C10.2282 31.3258 9.45464 30.5522 9.45464 29.6014C9.45464 28.6505 10.2282 27.8769 11.179 27.8769ZM23.9099 3.25581L27.4306 6.7934H19.7932L23.3294 3.25708C23.4898 3.09671 23.7506 3.09671 23.9099 3.25581ZM20.3693 4.23354L17.8095 6.7934H16.147L15.4564 5.55512L20.3693 4.23354ZM8.96845 3.52118L11.8269 1.92702L14.541 6.7934H10.7935L8.96845 3.52118ZM31.5392 9.08202L27.3723 21.3168C27.1295 22.0296 26.2559 22.6548 25.5028 22.6548H9.10498C8.41012 22.6548 7.76376 22.0708 7.69363 21.3797L7.44582 18.9354H22.5244C22.9117 18.9354 23.2257 18.6214 23.2257 18.2341C23.2257 17.8467 22.9117 17.5328 22.5244 17.5328H7.30368L6.47371 9.34572C6.47371 9.34552 6.47371 9.34545 6.47371 9.34532L6.47357 9.34378C6.44198 9.03192 6.53228 8.74104 6.72799 8.52449C6.91935 8.31269 7.19207 8.19607 7.49592 8.19607H29.1115C29.1139 8.19614 29.1161 8.1964 29.1184 8.1964C29.1207 8.1964 29.123 8.19614 29.1252 8.19607H30.9051C31.1821 8.19607 31.3958 8.28116 31.5063 8.43566C31.6169 8.59008 31.6285 8.81965 31.5392 9.08202Z" fill="#0D151B"/>
</svg>
