<svg width="33" height="33" viewBox="0 0 33 33" fill="none" xmlns="http://www.w3.org/2000/svg">
<g clip-path="url(#clip0)">
<path d="M29.2627 9.9551L30.7532 9.39997C31.0939 9.27307 31.4731 9.44638 31.5999 9.78715C31.7268 10.1278 31.5535 10.5069 31.2127 10.6338L29.7222 11.189C29.6465 11.2172 29.5689 11.2305 29.4926 11.2305C29.2254 11.2305 28.9742 11.0668 28.8755 10.8018C28.7486 10.4611 28.922 10.082 29.2627 9.9551ZM27.4466 9.26567C27.5353 9.30624 27.6283 9.32541 27.7199 9.32541C27.9696 9.32541 28.2085 9.18255 28.319 8.94062L28.9803 7.49402C29.1315 7.16337 28.986 6.77274 28.6553 6.62157C28.3247 6.47048 27.934 6.61605 27.7829 6.94662L27.1216 8.39322C26.9705 8.72386 27.1159 9.1145 27.4466 9.26567ZM21.3852 7.66527C19.7642 6.49945 18.0095 5.46529 16.1404 4.57515L13.4576 10.4839C13.3074 10.8149 12.9171 10.9615 12.586 10.8112C12.255 10.6609 12.1084 10.2707 12.2587 9.93963L14.9414 4.03096C13.0433 3.21109 11.1029 2.56971 9.16286 2.11686C10.0812 6.34811 10.3283 10.8456 9.75132 13.3433C9.66952 13.6975 9.31666 13.9183 8.96165 13.8366C8.60739 13.7547 8.3866 13.4012 8.4684 13.047C9.03218 10.6064 8.73338 6.04026 7.74638 1.81971C6.14721 1.52206 4.55587 1.35443 2.99538 1.32226L2.89029 1.55366C4.3666 3.59703 5.63701 7.35009 6.32192 11.73C6.82414 14.9417 7.04814 18.9779 6.2848 21.2279C6.29632 21.2346 6.30768 21.2412 6.3192 21.2479C6.32315 21.2501 6.3271 21.2524 6.33105 21.2547C6.72819 21.4835 7.13907 21.6944 7.55818 21.8847C7.99473 22.0828 8.44166 22.2592 8.89261 22.4117C9.69956 21.032 11.5174 19.2749 14.0039 17.488C16.7704 15.4997 19.875 13.8105 22.5215 12.8534C22.8637 12.7296 23.2409 12.9067 23.3645 13.2486C23.4881 13.5905 23.3113 13.9679 22.9693 14.0916C20.4694 14.9957 17.4051 16.6651 14.7722 18.5573C12.1777 20.4219 10.3323 22.2542 9.83592 23.4588C9.70746 23.7704 9.36447 23.9347 9.04098 23.8394C9.02469 23.8345 9.00839 23.8297 8.9921 23.8249L5.38791 31.7628C5.15519 32.2754 4.73682 32.6667 4.20975 32.8646C3.96864 32.9551 3.71789 33.0002 3.46789 33.0002C3.17132 33.0002 2.87548 32.9367 2.59734 32.8104C1.5394 32.3301 1.06943 31.0783 1.54969 30.02L5.15404 22.0823C5.13964 22.0732 5.12524 22.0642 5.11092 22.055C4.82636 21.8744 4.72423 21.508 4.87433 21.2061C5.60088 19.7449 5.65997 16.0185 5.02114 11.9335C4.3424 7.59252 3.03784 3.80721 1.61675 2.05473C1.45966 1.86093 1.42551 1.59497 1.5287 1.36776L1.97456 0.386275C2.08129 0.15084 2.31573 0 2.57388 0C2.57495 0 2.57594 0 2.57709 0C4.4837 0.00921662 6.43655 0.21371 8.3959 0.6041C8.40964 0.606404 8.4233 0.609202 8.4368 0.612329C11.0068 1.12788 13.587 1.9633 16.0855 3.09761C16.0863 3.09794 16.087 3.09827 16.0877 3.09868C16.0885 3.09901 16.0892 3.09934 16.0899 3.09966C19.1633 4.49541 21.9543 6.26228 24.3854 8.351C24.6612 8.58792 24.6926 9.00357 24.4557 9.27933C24.2188 9.55509 23.803 9.5866 23.5274 9.3496C23.205 9.07261 22.8761 8.80154 22.5406 8.5364C18.7132 10.5712 15.079 13.3515 13.6128 15.3823C13.3999 15.6771 12.9886 15.7436 12.6936 15.5307C12.3988 15.3179 12.3324 14.9063 12.5452 14.6116C14.0459 12.5333 17.5949 9.75876 21.3852 7.66527ZM2.74859 30.5641C2.56837 30.9613 2.74464 31.4311 3.14169 31.6114C3.33401 31.6988 3.54895 31.706 3.74686 31.6318C3.94461 31.5575 4.1017 31.4107 4.18901 31.2183L7.74243 23.3921C7.49728 23.2954 7.25419 23.1925 7.01399 23.0835C6.77394 22.9746 6.53629 22.8593 6.302 22.7383L2.74859 30.5641ZM25.1666 14.2514C24.836 14.1003 24.4453 14.2457 24.2941 14.5763L23.6325 16.0228C23.4813 16.3535 23.6268 16.7441 23.9574 16.8954C24.0461 16.936 24.1392 16.9552 24.2308 16.9552C24.4805 16.9552 24.7193 16.8124 24.8299 16.5705L25.4914 15.124C25.6427 14.7933 25.4972 14.4027 25.1666 14.2514ZM31.1186 13.235L29.6719 12.5735C29.3411 12.4225 28.9505 12.5679 28.7994 12.8985C28.6483 13.2292 28.7937 13.6198 29.1244 13.771L30.5711 14.4325C30.6598 14.4731 30.7528 14.4922 30.8444 14.4922C31.094 14.4922 31.3329 14.3494 31.4434 14.1074C31.5947 13.7767 31.4492 13.3861 31.1186 13.235ZM28.1102 14.7145C27.9833 14.3737 27.6042 14.2004 27.2635 14.3273C26.9227 14.4542 26.7494 14.8332 26.8763 15.174L27.4313 16.6646C27.53 16.9295 27.7812 17.0933 28.0484 17.0933C28.1247 17.0933 28.2023 17.08 28.278 17.0517C28.6188 16.9248 28.7921 16.5458 28.6652 16.205L28.1102 14.7145ZM27.0825 13.8424C26.8298 13.9365 26.5671 13.9833 26.3053 13.9833C25.9904 13.9833 25.6766 13.9156 25.3817 13.7808C24.8415 13.5339 24.4299 13.0912 24.2226 12.5345C24.0152 11.9779 24.0371 11.3739 24.284 10.8336C24.5311 10.2934 24.9737 9.88178 25.5304 9.67449C26.087 9.46712 26.691 9.48901 27.2313 9.73604C27.7715 9.98308 28.1831 10.4257 28.3904 10.9824C28.5978 11.5391 28.5759 12.1431 28.3289 12.6833C28.0818 13.2235 27.6392 13.6351 27.0825 13.8424ZM27.1315 12.1357C27.2324 11.9154 27.2412 11.6691 27.1566 11.4419C27.0721 11.2148 26.9042 11.0343 26.6838 10.9335C26.5636 10.8785 26.4354 10.8508 26.3071 10.8508C26.2002 10.8508 26.093 10.8699 25.9899 10.9084C25.7628 10.9929 25.5823 11.1608 25.4815 11.3811C25.3807 11.6014 25.3719 11.8479 25.4564 12.075C25.541 12.3022 25.7089 12.4828 25.9292 12.5835C26.1496 12.6842 26.3959 12.6932 26.6231 12.6085H26.6231C26.8503 12.5239 27.0308 12.356 27.1315 12.1357Z" fill="#0D151B"/>
</g>
<defs>
<clipPath id="clip0">
<rect width="33" height="33" fill="white"/>
</clipPath>
</defs>
</svg>
