<svg width="33" height="33" viewBox="0 0 33 33" fill="none" xmlns="http://www.w3.org/2000/svg">
<g clip-path="url(#clip0)">
<path d="M30.5247 7.98592L16.86 0.0966243C16.6368 -0.0322081 16.3618 -0.0322081 16.1386 0.0966243L2.47395 7.98592C2.25077 8.11475 2.11328 8.35286 2.11328 8.6106V24.3893C2.11328 24.647 2.25077 24.8851 2.47395 25.0139L16.1387 32.9033C16.2503 32.9677 16.3748 33 16.4994 33C16.624 33 16.7485 32.9677 16.86 32.9033L30.5248 25.0139C30.748 24.8851 30.8855 24.647 30.8855 24.3893V8.6106C30.8854 8.35294 30.7478 8.11475 30.5247 7.98592ZM29.4427 22.9094L28.9768 22.6404C28.6319 22.4412 28.1907 22.5594 27.9914 22.9044C27.7922 23.2495 27.9104 23.6906 28.2554 23.8899L28.921 24.2741L17.2206 31.0293V17.422C17.2299 17.4223 17.239 17.4237 17.2483 17.4237C17.4976 17.4237 17.74 17.2944 17.8737 17.063C17.9762 16.8855 17.9941 16.6828 17.9409 16.5004L29.4427 9.85983V22.9094ZM5.00732 22.9044C4.80816 22.5595 4.3672 22.4412 4.02196 22.6404L3.55597 22.9094V9.8599L15.0578 16.5005C15.0046 16.6828 15.0226 16.8855 15.125 17.063C15.2587 17.2944 15.501 17.4237 15.7504 17.4237C15.7596 17.4237 15.7688 17.4223 15.778 17.422V31.0292L4.07765 24.2741L4.74324 23.8898C5.08833 23.6906 5.20649 23.2495 5.00732 22.9044ZM16.4994 2.99954C16.8977 2.99954 17.2207 2.67659 17.2207 2.27819V1.97068L28.7212 8.61053L17.2061 15.2588C17.1389 14.93 16.848 14.6825 16.4994 14.6825C16.1507 14.6825 15.8598 14.93 15.7926 15.2589L4.27739 8.61053L15.778 1.97068V2.27826C15.778 2.67659 16.101 2.99954 16.4994 2.99954Z" fill="#0D151B"/>
<path d="M21.9292 20.2368L23.216 20.9797C23.3296 21.0453 23.4536 21.0765 23.5759 21.0765C23.8252 21.0765 24.0677 20.9471 24.2013 20.7157C24.4006 20.3707 24.2823 19.9296 23.9373 19.7304L22.6505 18.9874C22.3054 18.7882 21.8644 18.9064 21.6651 19.2514C21.4659 19.5964 21.5841 20.0375 21.9292 20.2368Z" fill="#0D151B"/>
<path d="M18.7651 18.4106L20.052 19.1535C20.1656 19.2192 20.2896 19.2503 20.4119 19.2503C20.6612 19.2503 20.9037 19.1209 21.0373 18.8895C21.2366 18.5445 21.1183 18.1033 20.7733 17.9042L19.4864 17.1613C19.1414 16.962 18.7002 17.0803 18.5011 17.4253C18.3018 17.7703 18.4201 18.2115 18.7651 18.4106Z" fill="#0D151B"/>
<path d="M25.0913 22.063L26.3781 22.8059C26.4918 22.8715 26.6158 22.9027 26.7381 22.9027C26.9874 22.9027 27.2299 22.7733 27.3635 22.5419C27.5627 22.1969 27.4445 21.7557 27.0995 21.5566L25.8126 20.8136C25.4675 20.6143 25.0263 20.7326 24.8273 21.0776C24.628 21.4226 24.7462 21.8638 25.0913 22.063Z" fill="#0D151B"/>
<path d="M12.5855 19.2503C12.7078 19.2503 12.8319 19.2191 12.9454 19.1536L14.2323 18.4106C14.5773 18.2114 14.6956 17.7702 14.4963 17.4252C14.2972 17.0802 13.856 16.962 13.511 17.1612L12.2241 17.9042C11.8791 18.1034 11.7608 18.5445 11.9601 18.8896C12.0937 19.121 12.3361 19.2503 12.5855 19.2503Z" fill="#0D151B"/>
<path d="M6.26126 22.9026C6.3836 22.9026 6.5076 22.8714 6.62121 22.8058L7.90809 22.0629C8.25311 21.8637 8.37134 21.4226 8.1721 21.0775C7.97301 20.7326 7.53198 20.6144 7.18674 20.8135L5.89986 21.5564C5.55484 21.7556 5.43661 22.1968 5.63585 22.5418C5.76944 22.7732 6.01189 22.9026 6.26126 22.9026Z" fill="#0D151B"/>
<path d="M9.42337 21.0765C9.54571 21.0765 9.66978 21.0453 9.78332 20.9797L11.0701 20.2368C11.4151 20.0375 11.5334 19.5964 11.3341 19.2514C11.135 18.9064 10.6938 18.7882 10.3488 18.9874L9.06197 19.7304C8.71695 19.9296 8.59872 20.3707 8.79796 20.7157C8.93162 20.9471 9.174 21.0765 9.42337 21.0765Z" fill="#0D151B"/>
<path d="M15.7773 5.93186C15.7773 6.33026 16.1004 6.6532 16.4987 6.6532C16.897 6.6532 17.22 6.33026 17.22 5.93186V4.44596C17.22 4.04756 16.897 3.72461 16.4987 3.72461C16.1004 3.72461 15.7773 4.04756 15.7773 4.44596V5.93186Z" fill="#0D151B"/>
<path d="M16.4987 7.37695C16.1004 7.37695 15.7773 7.6999 15.7773 8.0983V9.5842C15.7773 9.9826 16.1004 10.3055 16.4987 10.3055C16.897 10.3055 17.22 9.9826 17.22 9.5842V8.0983C17.22 7.6999 16.8971 7.37695 16.4987 7.37695Z" fill="#0D151B"/>
<path d="M16.4987 11.0293C16.1004 11.0293 15.7773 11.3522 15.7773 11.7506V13.2365C15.7773 13.6349 16.1004 13.9579 16.4987 13.9579C16.897 13.9579 17.22 13.6349 17.22 13.2365V11.7506C17.22 11.3522 16.8971 11.0293 16.4987 11.0293Z" fill="#0D151B"/>
</g>
<defs>
<clipPath id="clip0">
<rect width="33" height="33" fill="white"/>
</clipPath>
</defs>
</svg>
