<svg width="33" height="33" viewBox="0 0 33 33" fill="none" xmlns="http://www.w3.org/2000/svg">
<g clip-path="url(#clip0)">
<path d="M8.24919 13.1992C7.94504 13.1992 7.69922 13.4456 7.69922 13.7492V14.8492C7.69922 15.5884 8.18815 16.2159 8.85916 16.4249C9.02803 17.581 9.57522 20.8551 10.5416 22.3043L10.6284 22.4357C11.3346 23.5065 12.5166 25.2989 16.499 25.2989C20.4815 25.2989 21.6635 23.5065 22.3697 22.4357L22.4565 22.3043C23.4229 20.8551 23.9701 17.581 24.139 16.4249C24.4388 16.3314 24.6978 16.1521 24.898 15.9189C25.1273 15.8535 25.2989 15.6505 25.2989 15.3992V13.7492C25.2989 13.4456 25.0531 13.1992 24.749 13.1992C24.4448 13.1992 24.199 13.4456 24.199 13.7492V14.8492C24.199 15.1522 23.9526 15.3992 23.649 15.3992C23.3718 15.3992 23.1375 15.6059 23.1034 15.8809C22.9544 17.0689 22.3846 20.4294 21.5414 21.6938L21.4512 21.8302C20.7923 22.8301 19.8892 24.199 16.4991 24.199C13.109 24.199 12.2059 22.8301 11.547 21.8302L11.4568 21.6938C10.6147 20.4305 10.0439 17.0695 9.89478 15.8809C9.86068 15.6059 9.6264 15.3992 9.34919 15.3992C9.04562 15.3992 8.79922 15.1522 8.79922 14.8492V13.7492C8.79922 13.4456 8.55334 13.1992 8.24919 13.1992Z" fill="#0D151B"/>
<path d="M5.52804 11.5498C5.52804 11.8534 5.77386 12.0998 6.07801 12.0998H26.9496C27.2537 12.0998 27.4995 11.8534 27.4995 11.5498V9.34986C27.4995 9.27503 27.4841 9.20355 27.4572 9.13813C27.4473 9.11615 27.4297 9.09907 27.4181 9.07871C27.3951 9.03913 27.3736 8.99788 27.3417 8.9654C27.3224 8.94561 27.2966 8.93408 27.2746 8.91758C27.2405 8.89225 27.2097 8.86479 27.1701 8.84771C27.1437 8.8356 27.1124 8.8345 27.0827 8.82683C27.0464 8.81748 27.0112 8.80208 26.9721 8.8004C25.7753 4.99555 22.5958 2.12627 18.6997 1.33261V0.919537C18.6997 0.70504 18.5743 0.509815 18.3796 0.420163C18.3428 0.402567 17.4567 0 16.4998 0C15.5428 0 14.6568 0.402567 14.6199 0.420163C14.4252 0.509815 14.2998 0.70504 14.2998 0.919537V1.33261C10.4031 2.12679 7.22312 4.99613 6.0269 8.80202C6.01697 8.80311 6.00982 8.80859 5.99995 8.81027C5.72055 8.83611 5.5 9.06382 5.5 9.34979C5.5 9.39878 5.51592 9.44273 5.52804 9.48837V11.5498ZM16.4998 10.9998C15.2865 10.9998 14.2998 10.0131 14.2998 8.79989C14.2998 7.58664 15.2865 6.59988 16.4998 6.59988C17.713 6.59988 18.6997 7.58658 18.6997 8.79982C18.6997 10.0131 17.7131 10.9998 16.4998 10.9998ZM6.62797 9.89983H8.79988C9.10403 9.89983 9.34985 9.65343 9.34985 9.34986C9.34985 9.04629 9.10403 8.79989 8.79988 8.79989H7.18729C8.31475 5.61158 11.0086 3.21035 14.2998 2.46013V3.84998C14.2998 4.15354 14.5456 4.39994 14.8497 4.39994C15.1539 4.39994 15.3997 4.15354 15.3997 3.84998V1.298C15.6725 1.20783 16.085 1.1 16.4997 1.1C16.915 1.1 17.3275 1.20783 17.5997 1.298V3.84998C17.5997 4.15354 17.8455 4.39994 18.1497 4.39994C18.4538 4.39994 18.6996 4.15354 18.6996 3.84998V2.46013C21.9908 3.21029 24.6847 5.61158 25.8121 8.79989H24.1995C23.8954 8.79989 23.6496 9.04629 23.6496 9.34986C23.6496 9.65343 23.8954 9.89983 24.1995 9.89983H26.3995V10.9998H18.9527C19.4774 10.4152 19.7997 9.64576 19.7997 8.79989C19.7997 6.97996 18.3197 5.49995 16.4998 5.49995C14.6798 5.49995 13.1998 6.97996 13.1998 8.79989C13.1998 9.64576 13.5221 10.4152 14.0468 10.9998H6.62797V9.89983Z" fill="#0D151B"/>
<path d="M15.9504 20.9004C15.6462 20.9004 15.4004 21.1468 15.4004 21.4504C15.4004 21.7539 15.6462 22.0003 15.9504 22.0003H17.0504C17.3545 22.0003 17.6003 21.7539 17.6003 21.4504C17.6003 21.1468 17.3545 20.9004 17.0504 20.9004H15.9504Z" fill="#0D151B"/>
<path d="M32.9707 32.2756L32.4208 30.6257C31.8499 28.9119 30.5899 27.1706 26.0497 26.6091C26.015 26.5954 25.9831 26.575 25.9446 26.5684C25.8764 26.5563 25.8099 26.5613 25.7461 26.5728C24.8474 26.4755 23.8255 26.4221 22.6623 26.4221H22.6606C22.6237 26.4139 22.5891 26.3995 22.5501 26.3995C22.5347 26.3995 21.0134 26.3913 20.0454 25.9078C19.7732 25.772 19.4437 25.882 19.3073 26.1537C19.1714 26.4253 19.282 26.7559 19.5537 26.8918C20.2879 27.258 21.2136 27.4033 21.8411 27.461C21.406 28.7909 20.0162 31.8994 16.4996 31.8994C12.9626 31.8994 11.5909 28.814 11.1586 27.461C11.7867 27.4033 12.7118 27.258 13.4455 26.8918C13.7172 26.7559 13.8278 26.4254 13.6913 26.1537C13.555 25.8819 13.2255 25.772 12.9538 25.9078C11.9858 26.3913 10.4645 26.3995 10.4491 26.3995C3.01214 26.3995 1.30997 28.4307 0.578435 30.6257L0.0284658 32.2756C-0.0677611 32.5638 0.0878906 32.8751 0.376056 32.9714C0.666477 33.0676 0.975009 32.9114 1.07124 32.6232L1.6212 30.9732C1.99793 29.8447 2.59856 28.0567 7.77728 27.6062C7.92249 28.5302 8.24971 30.7874 8.24971 32.4495C8.24971 32.753 8.49553 32.9994 8.79968 32.9994C9.10383 32.9994 9.34965 32.753 9.34965 32.4495C9.34965 30.7511 9.03725 28.5412 8.87941 27.5342C9.24408 27.5177 9.62357 27.5062 10.0272 27.5018C10.4365 28.8822 12.0331 32.9994 16.4996 32.9994C20.9655 32.9994 22.5621 28.8987 22.9724 27.5237C23.7996 27.5309 24.5393 27.5677 25.2076 27.6271C25.047 28.6605 24.7495 30.7928 24.7495 32.4494C24.7495 32.753 24.9953 32.9994 25.2995 32.9994C25.6036 32.9994 25.8494 32.753 25.8494 32.4494C25.8494 30.8632 26.1481 28.7419 26.3021 27.7541C30.5067 28.3707 31.0755 30.0663 31.3779 30.9732L31.9279 32.6232C32.0043 32.8536 32.2188 32.9999 32.4493 32.9999C32.5071 32.9999 32.5654 32.9906 32.6232 32.9713C32.9113 32.8751 33.067 32.5639 32.9707 32.2756Z" fill="#0D151B"/>
<path d="M16.2541 18.7569C15.2921 19.2382 14.3088 19.2492 14.3 19.2492C13.9958 19.2492 13.75 19.4956 13.75 19.7991C13.75 20.1027 13.9958 20.3491 14.3 20.3491C14.3467 20.3491 15.3862 20.3431 16.4999 19.8563C17.6136 20.3431 18.6531 20.3491 18.6998 20.3491C19.0029 20.3491 19.2482 20.1038 19.2493 19.8008C19.2498 19.4977 19.0046 19.2508 18.7015 19.2491C18.6911 19.2491 17.7077 19.2381 16.7457 18.7569C16.5912 18.68 16.4086 18.68 16.2541 18.7569Z" fill="#0D151B"/>
<path d="M14.8495 14.3008H12.6496C12.3454 14.3008 12.0996 14.5472 12.0996 14.8507C12.0996 15.1543 12.3454 15.4007 12.6496 15.4007H13.1995C13.1995 15.7043 13.4454 15.9507 13.7495 15.9507C14.0537 15.9507 14.2995 15.7043 14.2995 15.4007H14.8495C15.1536 15.4007 15.3994 15.1543 15.3994 14.8507C15.3994 14.5472 15.1537 14.3008 14.8495 14.3008Z" fill="#0D151B"/>
<path d="M18.6996 15.4007C18.6996 15.7043 18.9454 15.9507 19.2496 15.9507C19.5537 15.9507 19.7996 15.7043 19.7996 15.4007H20.3495C20.6537 15.4007 20.8995 15.1543 20.8995 14.8507C20.8995 14.5472 20.6537 14.3008 20.3495 14.3008H18.1496C17.8454 14.3008 17.5996 14.5472 17.5996 14.8507C17.5996 15.1543 17.8454 15.4007 18.1496 15.4007H18.6996Z" fill="#0D151B"/>
</g>
<defs>
<clipPath id="clip0">
<rect width="33" height="33" fill="white"/>
</clipPath>
</defs>
</svg>
