<svg width="33" height="33" viewBox="0 0 33 33" fill="none" xmlns="http://www.w3.org/2000/svg">
<path d="M10.4504 13.4789H16.5004C16.804 13.4789 17.0504 13.2331 17.0504 12.9289C17.0504 12.6248 16.804 12.3789 16.5004 12.3789H10.4504C10.1468 12.3789 9.90039 12.6248 9.90039 12.9289C9.90039 13.2331 10.1468 13.4789 10.4504 13.4789Z" fill="#0D151B"/>
<path d="M19.2504 16.2285H7.70039C7.39679 16.2285 7.15039 16.4744 7.15039 16.7785C7.15039 17.0827 7.39679 17.3285 7.70039 17.3285H19.2504C19.554 17.3285 19.8004 17.0827 19.8004 16.7785C19.8004 16.4744 19.554 16.2285 19.2504 16.2285Z" fill="#0D151B"/>
<path d="M19.2504 20.0781H7.70039C7.39679 20.0781 7.15039 20.324 7.15039 20.6281C7.15039 20.9323 7.39679 21.1781 7.70039 21.1781H19.2504C19.554 21.1781 19.8004 20.9323 19.8004 20.6281C19.8004 20.324 19.554 20.0781 19.2504 20.0781Z" fill="#0D151B"/>
<path d="M24.8732 0.271484H14.1768C10.6304 0.271484 7.5042 2.59028 6.4427 5.94858C2.76705 6.72683 0 9.99438 0 13.8983V20.138C0 24.3906 3.47215 28.0107 7.7 28.3028V31.8668C7.7 32.2386 7.88865 32.5477 8.1917 32.6731C8.28135 32.7099 8.37485 32.7286 8.46835 32.7286C8.6746 32.7286 8.88085 32.6412 9.04585 32.4756L9.8824 31.6391C12.0219 29.4996 14.9154 28.3215 18.0295 28.3215H18.8232C22.4527 28.3215 25.5321 25.9125 26.5727 22.5998C30.2593 21.7473 33 18.3907 33 14.6375V8.39828C33 3.91688 29.3546 0.271484 24.8732 0.271484ZM18.8232 27.2209H18.0295C14.6212 27.2209 11.4516 28.514 9.10415 30.8608L8.8 31.1655V27.7709V27.2209V25.4862C8.8 25.1821 8.5536 24.9362 8.25 24.9362C7.9464 24.9362 7.7 25.1821 7.7 25.4862V27.1923C4.07 26.903 1.1 23.7939 1.1 20.1375V13.8983C1.1 10.5229 3.49305 7.69758 6.67095 7.02493L6.95695 6.97708C7.1599 6.94298 7.35295 6.91823 7.53995 6.90118C7.6934 6.88853 7.84795 6.88028 8.00415 6.87753C8.0443 6.87698 8.0872 6.87203 8.1268 6.87203H18.8232C22.698 6.87148 25.85 10.0241 25.85 13.8983V20.138C25.85 20.3371 25.8363 20.5329 25.8203 20.7276C25.812 20.8217 25.8033 20.9152 25.7912 21.0098C25.784 21.0697 25.773 21.128 25.7642 21.1869C25.7224 21.4558 25.6679 21.7259 25.5942 21.9959L25.5101 22.3067C24.5988 25.154 21.9472 27.2209 18.8232 27.2209ZM31.9 14.6375C31.9 17.7065 29.7798 20.4757 26.8477 21.3942C26.8549 21.3508 26.857 21.3073 26.8636 21.2639C26.8829 21.1253 26.9022 20.9872 26.9143 20.8464C26.9363 20.6094 26.95 20.3723 26.95 20.1375V13.8983C26.95 13.3384 26.8928 12.7911 26.7845 12.2626C26.0255 8.56273 22.7442 5.77148 18.8232 5.77148H8.1268C8.11635 5.77148 8.10645 5.77313 8.09545 5.77313C7.95245 5.77368 7.8078 5.77753 7.65985 5.78743C8.7142 3.15073 11.2865 1.37203 14.1768 1.37203H24.8732C28.7479 1.37148 31.9 4.52408 31.9 8.39828V14.6375Z" fill="#0D151B"/>
</svg>
