<svg width="33" height="33" viewBox="0 0 33 33" fill="none" xmlns="http://www.w3.org/2000/svg">
<path d="M32.7356 27.8723C32.748 27.7397 32.7231 27.6042 32.6578 27.483L29.4498 21.5258C29.33 21.3032 29.0977 21.1643 28.8449 21.1642L20.8651 21.1589V15.1991C22.3547 13.988 24.5569 11.3482 24.5569 8.09325C24.5568 3.70624 20.8933 0 16.5568 0C14.4928 0 12.405 0.859375 10.8289 2.35785C9.18733 3.91854 8.28327 5.9554 8.28327 8.09325C8.28327 11.3238 10.7 13.99 11.9699 15.1674V21.1574L4.02441 21.1409C4.02393 21.1409 4.02345 21.1409 4.02297 21.1409C3.76763 21.1409 3.53319 21.2825 3.41439 21.5086L0.283864 27.4658C0.172764 27.6771 0.179707 27.9307 0.301257 28.1359C0.30112 28.1401 0.300639 28.144 0.300639 28.1482V32.2042C0.300639 32.5829 0.606989 32.8903 0.985732 32.8917L32.1038 33C32.1046 33 32.1053 33 32.1062 33C32.2881 33 32.4626 32.9279 32.5915 32.7995C32.7209 32.6705 32.7937 32.4952 32.7937 32.3125V28.1482C32.7937 28.0501 32.7728 27.9569 32.7356 27.8723ZM9.65827 8.09325C9.65827 4.51433 12.8819 1.375 16.5568 1.375C20.1479 1.375 23.1818 4.45156 23.1818 8.09325C23.1818 10.6327 21.4128 13.0958 19.7691 14.3098C19.5937 14.4395 19.4901 14.6446 19.4901 14.8629V22.8958C19.4587 22.9933 19.2336 23.2935 18.7245 23.6191C18.2416 23.928 17.7673 24.0897 17.5485 24.0897H15.5514C15.3229 24.0897 14.8034 23.9272 14.2526 23.6164C13.6681 23.2868 13.3976 22.9885 13.3449 22.8781V14.8628C13.3449 14.6661 13.2606 14.4788 13.1134 14.3483C12.0746 13.4276 9.65827 10.9748 9.65827 8.09325ZM4.43788 22.5168L11.9699 22.5325V22.9129C11.9699 23.6869 12.7592 24.3246 13.4212 24.7233C14.0165 25.0816 14.8888 25.4647 15.5514 25.4647H17.5485C18.3855 25.4647 19.3128 24.8824 19.5771 24.7041C20.0581 24.3792 20.8651 23.7146 20.8651 22.9129V22.5339L28.4337 22.5389L30.9009 27.1206L2.02991 27.099L4.43788 22.5168ZM31.4186 31.6226L1.67564 31.5191V28.4737L31.4186 28.4959V31.6226Z" fill="#0D151B"/>
<path d="M13.5603 6.10339C13.9729 5.6911 14.8747 5.2443 15.5596 5.23632C15.9393 5.23192 16.2434 4.92055 16.239 4.54091C16.2346 4.16128 15.9234 3.8541 15.5435 3.86146C14.4363 3.87438 13.1946 4.52503 12.5887 5.13045C11.9487 5.7692 11.246 7.18786 11.2267 8.36603C11.2204 8.7456 11.5231 9.05848 11.9027 9.06473C11.9066 9.0648 11.9104 9.0648 11.9143 9.0648C12.2887 9.0648 12.5953 8.76436 12.6014 8.38858C12.614 7.62813 13.127 6.53583 13.5603 6.10339Z" fill="#0D151B"/>
</svg>
