<svg width="36" height="36" viewBox="0 0 36 36" fill="none" xmlns="http://www.w3.org/2000/svg">
<path d="M30.7742 0H5.22581C2.34428 0 0 2.34428 0 5.22581V30.7742C0 33.6557 2.34428 36 5.22581 36H30.7742C33.6557 36 36 33.6557 36 30.7742V5.22581C36 2.34428 33.6557 0 30.7742 0ZM34.8387 30.7742C34.8387 33.0153 33.0153 34.8387 30.7742 34.8387H5.22581C2.98466 34.8387 1.16129 33.0153 1.16129 30.7742V5.22581C1.16129 2.98466 2.98466 1.16129 5.22581 1.16129H30.7742C33.0153 1.16129 34.8387 2.98466 34.8387 5.22581V30.7742Z" fill="#0D151B"/>
<path d="M33.0965 17.419H18.5803V2.90291C18.5803 2.58225 18.3203 2.32227 17.9997 2.32227C17.679 2.32227 17.419 2.58225 17.419 2.90291V17.419H2.90291C2.58225 17.419 2.32227 17.679 2.32227 17.9997C2.32227 18.3203 2.58225 18.5803 2.90291 18.5803H17.419V33.0965C17.419 33.4171 17.679 33.6771 17.9997 33.6771C18.3203 33.6771 18.5803 33.4171 18.5803 33.0965V18.5803H33.0965C33.4171 18.5803 33.6771 18.3203 33.6771 17.9997C33.6771 17.679 33.4171 17.419 33.0965 17.419Z" fill="#0D151B"/>
<path d="M4.6451 9.8709H8.70962V13.9354C8.70962 14.2561 8.9696 14.5161 9.29026 14.5161C9.61092 14.5161 9.87091 14.2561 9.87091 13.9354V9.8709H13.9354C14.2561 9.8709 14.5161 9.61092 14.5161 9.29026C14.5161 8.9696 14.2561 8.70961 13.9354 8.70961H9.87091V4.6451C9.87091 4.32444 9.61092 4.06445 9.29026 4.06445C8.9696 4.06445 8.70962 4.32444 8.70962 4.6451V8.70961H4.6451C4.32444 8.70961 4.06445 8.9696 4.06445 9.29026C4.06445 9.61092 4.32444 9.8709 4.6451 9.8709Z" fill="#0D151B"/>
<path d="M22.065 9.87027H31.3553C31.676 9.87027 31.936 9.61029 31.936 9.28963C31.936 8.96897 31.676 8.70898 31.3553 8.70898H22.065C21.7444 8.70898 21.4844 8.96897 21.4844 9.28963C21.4844 9.61029 21.7444 9.87027 22.065 9.87027Z" fill="#0D151B"/>
<path d="M31.3553 26.1289H22.065C21.7444 26.1289 21.4844 26.3889 21.4844 26.7096C21.4844 27.0302 21.7444 27.2902 22.065 27.2902H31.3553C31.676 27.2902 31.936 27.0302 31.936 26.7096C31.936 26.3889 31.676 26.1289 31.3553 26.1289Z" fill="#0D151B"/>
<path d="M13.1855 22.8146C12.9588 22.5878 12.5912 22.5878 12.3644 22.8146L9.29106 25.8879L6.21778 22.8147C5.99104 22.5879 5.62342 22.5879 5.39667 22.8147C5.16986 23.0414 5.16986 23.409 5.39667 23.6358L8.46996 26.7091L5.39667 29.7823C5.16986 30.0091 5.16986 30.3767 5.39667 30.6034C5.50997 30.7169 5.65862 30.7736 5.80719 30.7736C5.95576 30.7736 6.10441 30.7169 6.21778 30.6035L9.29106 27.5302L12.3643 30.6034C12.4777 30.7168 12.6263 30.7735 12.7749 30.7735C12.9236 30.7735 13.0722 30.7168 13.1855 30.6034C13.4123 30.3767 13.4123 30.0091 13.1855 29.7823L10.1122 26.7091L13.1855 23.6358C13.4123 23.409 13.4123 23.0413 13.1855 22.8146Z" fill="#0D151B"/>
<path d="M28.4526 23.2263C28.4526 22.2658 27.6712 21.4844 26.7107 21.4844C25.7502 21.4844 24.9688 22.2658 24.9688 23.2263C24.9688 24.1868 25.7502 24.9682 26.7107 24.9682C27.6712 24.9682 28.4526 24.1868 28.4526 23.2263ZM26.13 23.2263C26.13 22.9062 26.3905 22.6457 26.7107 22.6457C27.0308 22.6457 27.2913 22.9062 27.2913 23.2263C27.2913 23.5465 27.0308 23.807 26.7107 23.807C26.3905 23.807 26.13 23.5465 26.13 23.2263Z" fill="#0D151B"/>
<path d="M26.7107 28.4512C25.7502 28.4512 24.9688 29.2326 24.9688 30.1931C24.9688 31.1536 25.7502 31.935 26.7107 31.935C27.6712 31.935 28.4526 31.1536 28.4526 30.1931C28.4526 29.2326 27.6712 28.4512 26.7107 28.4512ZM26.7107 30.7738C26.3905 30.7738 26.13 30.5133 26.13 30.1931C26.13 29.873 26.3905 29.6125 26.7107 29.6125C27.0308 29.6125 27.2913 29.873 27.2913 30.1931C27.2913 30.5133 27.0308 30.7738 26.7107 30.7738Z" fill="#0D151B"/>
</svg>
