<svg width="357" height="215" viewBox="0 0 357 215" fill="none" xmlns="http://www.w3.org/2000/svg">
<mask id="path-1-inside-1" fill="white">
<path d="M89.6976 210.868C64.3218 207.095 41.192 194.074 24.6733 174.265C8.15466 154.456 -0.610168 129.228 0.033022 103.342C0.676212 77.4562 10.6829 52.7033 28.1646 33.755C45.6463 14.8067 69.3937 2.97368 94.925 0.48909L94.9855 1.1235C69.6078 3.59315 46.0032 15.3551 28.6266 34.1894C11.25 53.0238 1.30349 77.6278 0.664164 103.358C0.0248412 129.088 8.73696 154.165 25.1563 173.855C41.5756 193.545 64.5664 206.487 89.7896 210.238L89.6976 210.868Z"/>
</mask>
<path d="M89.6976 210.868C64.3218 207.095 41.192 194.074 24.6733 174.265C8.15466 154.456 -0.610168 129.228 0.033022 103.342C0.676212 77.4562 10.6829 52.7033 28.1646 33.755C45.6463 14.8067 69.3937 2.97368 94.925 0.48909L94.9855 1.1235C69.6078 3.59315 46.0032 15.3551 28.6266 34.1894C11.25 53.0238 1.30349 77.6278 0.664164 103.358C0.0248412 129.088 8.73696 154.165 25.1563 173.855C41.5756 193.545 64.5664 206.487 89.7896 210.238L89.6976 210.868Z" stroke="#747474" stroke-width="2" stroke-dasharray="2 3" mask="url(#path-1-inside-1)"/>
<line x1="351" y1="210.5" x2="89" y2="210.5" stroke="#747474" stroke-dasharray="2 3"/>
<path d="M350.5 210.5H356M356 210.5L352.235 207M356 210.5L352.235 214" stroke="#747474"/>
</svg>
