<svg width="71" height="71" viewBox="0 0 71 71" fill="none" xmlns="http://www.w3.org/2000/svg">
<circle cx="35.5" cy="35.5" r="35" stroke="white" stroke-opacity="0.3"/>
<path d="M46.0635 41.3348C46.0418 41.3287 46.0197 41.324 45.9975 41.3207L41.4789 40.6428C40.7481 40.17 40.6792 38.9974 40.6778 37.7277C42.1048 36.2569 42.9948 34.1864 42.9948 31.8959V31.7104C44.1024 30.7269 44.7326 29.3315 44.7326 27.8411V24.3656C44.7326 21.5109 42.4102 19.1885 39.5555 19.1885H32.0252C30.9442 19.1885 30.0365 19.9444 29.8028 20.9553C27.8146 21.1955 26.2688 22.893 26.2688 24.9448V27.8411C26.2688 29.3317 26.899 30.727 28.0066 31.7105V31.8959C28.0066 34.1864 28.8966 36.2569 30.3235 37.7277C30.3222 38.9974 30.2532 40.1699 29.5225 40.6428L25.0039 41.3207C24.9816 41.324 24.9596 41.3287 24.9379 41.3348C23.9441 41.6132 23.0985 42.2295 22.4926 43.1171C21.9395 43.9274 21.6348 44.9054 21.6348 45.8712V48.1151C21.6348 49.0506 22.4693 49.8117 23.4951 49.8117H47.5062C48.532 49.8117 49.3666 49.0506 49.3666 48.1151V45.8712C49.3666 44.9055 49.0619 43.9274 48.5088 43.1172C47.9029 42.2296 47.0572 41.6132 46.0635 41.3348ZM35.5007 39.9693C37.0169 39.9693 38.4291 39.4813 39.6098 38.644C39.662 39.6351 39.8673 40.7348 40.6733 41.3975C40.2374 43.6167 38.0717 45.255 35.5007 45.255C32.9298 45.255 30.764 43.6167 30.3281 41.3975C31.1342 40.7348 31.3394 39.6351 31.3916 38.644C32.5724 39.4813 33.9845 39.9693 35.5007 39.9693ZM29.0927 31.5116C29.0957 31.4785 29.0957 31.4454 29.0927 31.4125V28.4203C29.0927 27.4422 29.8885 26.6463 30.8667 26.6463H40.714C41.0139 26.6463 41.2571 26.4033 41.2571 26.1033C41.2571 25.8034 41.0139 25.5602 40.714 25.5602H30.8667C29.2896 25.5602 28.0066 26.8433 28.0066 28.4203V30.0571C27.5854 29.405 27.3549 28.6406 27.3549 27.841V24.9448C27.3549 23.3278 28.6704 22.0123 30.2874 22.0123C30.5873 22.0123 30.8305 21.7692 30.8305 21.4692C30.8305 20.8105 31.3664 20.2745 32.0252 20.2745H39.5555C41.8113 20.2745 43.6465 22.1097 43.6465 24.3655V27.841C43.6465 28.6405 43.416 29.4049 42.9948 30.057V27.841C42.9948 27.5411 42.7517 27.298 42.4518 27.298C42.1519 27.298 41.9087 27.5411 41.9087 27.841V31.8958C41.9087 35.7486 39.0341 38.8831 35.5007 38.8831C31.9673 38.8831 29.0927 35.7486 29.0927 31.8958V31.5116ZM48.2806 48.1151C48.2806 48.446 47.926 48.7256 47.5063 48.7256H23.4951C23.0754 48.7256 22.7209 48.446 22.7209 48.1151V45.8712C22.7209 44.4949 23.5722 42.8632 25.1997 42.3896L29.297 41.7748C29.9044 44.4134 32.4721 46.3411 35.5007 46.3411C38.5293 46.3411 41.097 44.4134 41.7044 41.7748L45.8017 42.3896C47.4292 42.8632 48.2806 44.4949 48.2806 45.8712V48.1151Z" fill="white" fill-opacity="0.65"/>
<path d="M20.4393 43.5168H18.3954C18.2184 43.5168 18.0861 43.4096 18.0861 43.3136V41.8617C18.0861 41.0464 18.5852 40.0813 19.5397 39.7968L22.4958 39.3533C22.5086 39.3514 22.521 39.3485 22.5335 39.3457C22.5389 39.3444 22.5444 39.3438 22.5499 39.3424C22.5701 39.3373 22.5898 39.3308 22.6089 39.3234C22.6136 39.3217 22.6181 39.3195 22.6227 39.3176C22.6385 39.3111 22.6538 39.3039 22.6688 39.296C22.6713 39.2947 22.674 39.2938 22.6764 39.2925C22.6812 39.2898 22.6855 39.287 22.6903 39.2843C22.6944 39.2819 22.6984 39.2796 22.7024 39.2772C23.3604 38.9018 23.5881 38.2221 23.6665 37.5579C24.3874 37.9857 25.2152 38.23 26.0953 38.23C26.8341 38.23 27.5462 38.0621 28.2117 37.731C28.4802 37.5974 28.5897 37.2715 28.4561 37.0029C28.3225 36.7344 27.9965 36.625 27.728 36.7586C27.214 37.0142 26.6647 37.1438 26.0953 37.1438C23.9148 37.1438 22.1409 35.2018 22.1409 32.8148V30.4983C22.1409 29.9711 22.5698 29.5423 23.097 29.5423H24.4941C24.794 29.5423 25.0372 29.2992 25.0372 28.9992C25.0372 28.6993 24.794 28.4562 24.4941 28.4562H23.097C21.9709 28.4562 21.0548 29.3723 21.0548 30.4983V30.783C21.0076 30.5917 20.9824 30.3935 20.9824 30.1913V28.3174C20.9824 27.3769 21.7475 26.6118 22.688 26.6118C22.9879 26.6118 23.2311 26.3687 23.2311 26.0688C23.2311 25.7482 23.4918 25.4875 23.8123 25.4875H24.4941C24.794 25.4875 25.0372 25.2444 25.0372 24.9444C25.0372 24.6445 24.794 24.4014 24.4941 24.4014H23.8123C23.0687 24.4014 22.4371 24.8908 22.2229 25.5644C20.9041 25.7865 19.8963 26.9365 19.8963 28.3174V30.1913C19.8963 31.1973 20.3161 32.1394 21.0548 32.8105V32.8148C21.0548 34.3548 21.6572 35.7455 22.621 36.7324C22.6151 37.423 22.5622 38.0421 22.2208 38.2964L19.3431 38.7281C19.3209 38.7314 19.2989 38.7362 19.2771 38.7422C17.7821 39.161 17 40.6285 17 41.8617V43.3136C17 44.0245 17.626 44.6029 18.3954 44.6029H20.4393C20.7392 44.6029 20.9824 44.3599 20.9824 44.0599C20.9824 43.76 20.7392 43.5168 20.4393 43.5168Z" fill="white" fill-opacity="0.65"/>
<path d="M51.7221 38.7422C51.7004 38.7362 51.6784 38.7314 51.6561 38.7281L48.7784 38.2964C48.437 38.0421 48.3841 37.4231 48.3782 36.7325C49.3419 35.7455 49.9444 34.3548 49.9444 32.8148V32.8105C50.6831 32.1394 51.1029 31.1972 51.1029 30.1907V27.2614C51.1029 25.6844 49.8198 24.4014 48.2428 24.4014H46.505C46.2051 24.4014 45.962 24.6445 45.962 24.9444C45.962 25.2444 46.2051 25.4875 46.505 25.4875H48.2428C49.2209 25.4875 50.0168 26.2833 50.0168 27.2614V30.1913C50.0168 30.3935 49.9916 30.5917 49.9444 30.783V30.4983C49.9444 29.3723 49.0283 28.4562 47.9022 28.4562H46.5051C46.2052 28.4562 45.962 28.6993 45.962 28.9992C45.962 29.2992 46.2052 29.5423 46.5051 29.5423H47.9023C48.4295 29.5423 48.8583 29.9711 48.8583 30.4983V32.8148C48.8583 35.2018 47.0844 37.1438 44.904 37.1438C44.3346 37.1438 43.7853 37.0142 43.2714 36.7586C43.0028 36.625 42.6769 36.7345 42.5433 37.0029C42.4097 37.2715 42.5192 37.5974 42.7876 37.731C43.4532 38.062 44.1653 38.23 44.904 38.23C45.7841 38.23 46.612 37.9857 47.3328 37.5579C47.4112 38.2221 47.639 38.9018 48.297 39.2772C48.3009 39.2796 48.305 39.2819 48.309 39.2843C48.3137 39.287 48.3181 39.2898 48.3229 39.2925C48.3253 39.2938 48.328 39.2947 48.3305 39.296C48.3454 39.3039 48.3607 39.3111 48.3765 39.3176C48.3812 39.3195 48.3857 39.3217 48.3904 39.3234C48.4095 39.3308 48.4291 39.3373 48.4494 39.3424C48.4549 39.3438 48.4604 39.3445 48.4659 39.3457C48.4783 39.3485 48.4906 39.3514 48.5034 39.3533L51.4594 39.7968C52.4139 40.0813 52.913 41.0464 52.913 41.8617V43.3136C52.913 43.4095 52.7808 43.5168 52.6038 43.5168H50.5599C50.26 43.5168 50.0168 43.76 50.0168 44.0599C50.0168 44.3599 50.26 44.6029 50.5599 44.6029H52.6039C53.3733 44.6029 53.9992 44.0245 53.9992 43.3136V41.8617C53.9992 40.6286 53.2171 39.1611 51.7221 38.7422Z" fill="white" fill-opacity="0.65"/>
</svg>
