<svg width="71" height="71" viewBox="0 0 71 71" fill="none" xmlns="http://www.w3.org/2000/svg">
<circle cx="35.5" cy="35.5" r="35" stroke="white" stroke-opacity="0.3"/>
<g clip-path="url(#clip0)">
<path d="M27.2492 31.2002C26.945 31.2002 26.6992 31.4466 26.6992 31.7502V32.8502C26.6992 33.5894 27.1882 34.2169 27.8592 34.4259C28.028 35.582 28.5752 38.8561 29.5416 40.3053L29.6284 40.4367C30.3346 41.5075 31.5166 43.2999 35.499 43.2999C39.4815 43.2999 40.6635 41.5075 41.3697 40.4367L41.4565 40.3053C42.4229 38.8561 42.9701 35.582 43.139 34.4259C43.4388 34.3324 43.6978 34.1531 43.898 33.9199C44.1273 33.8545 44.2989 33.6515 44.2989 33.4001V31.7502C44.2989 31.4466 44.0531 31.2002 43.749 31.2002C43.4448 31.2002 43.199 31.4466 43.199 31.7502V32.8502C43.199 33.1532 42.9526 33.4001 42.649 33.4001C42.3718 33.4001 42.1375 33.6069 42.1034 33.8819C41.9544 35.0699 41.3846 38.4304 40.5414 39.6948L40.4512 39.8312C39.7923 40.8311 38.8892 42.2 35.4991 42.2C32.109 42.2 31.2059 40.8311 30.547 39.8312L30.4568 39.6948C29.6147 38.4315 29.0439 35.0705 28.8948 33.8819C28.8607 33.6069 28.6264 33.4001 28.3492 33.4001C28.0456 33.4001 27.7992 33.1532 27.7992 32.8502V31.7502C27.7992 31.4466 27.5533 31.2002 27.2492 31.2002Z" fill="white" fill-opacity="0.65"/>
<path d="M24.528 29.5498C24.528 29.8534 24.7739 30.0998 25.078 30.0998H45.9496C46.2537 30.0998 46.4995 29.8534 46.4995 29.5498V27.3499C46.4995 27.275 46.4841 27.2036 46.4572 27.1381C46.4473 27.1162 46.4297 27.0991 46.4181 27.0787C46.3951 27.0391 46.3736 26.9979 46.3417 26.9654C46.3224 26.9456 46.2966 26.9341 46.2746 26.9176C46.2405 26.8922 46.2097 26.8648 46.1701 26.8477C46.1437 26.8356 46.1124 26.8345 46.0827 26.8268C46.0464 26.8175 46.0112 26.8021 45.9721 26.8004C44.7753 22.9955 41.5958 20.1263 37.6997 19.3326V18.9195C37.6997 18.705 37.5743 18.5098 37.3796 18.4202C37.3428 18.4026 36.4567 18 35.4998 18C34.5428 18 33.6568 18.4026 33.6199 18.4202C33.4252 18.5098 33.2998 18.705 33.2998 18.9195V19.3326C29.4031 20.1268 26.2231 22.9961 25.0269 26.802C25.017 26.8031 25.0098 26.8086 25 26.8103C24.7206 26.8361 24.5 27.0638 24.5 27.3498C24.5 27.3988 24.5159 27.4427 24.528 27.4884V29.5498ZM35.4998 28.9998C34.2865 28.9998 33.2998 28.0131 33.2998 26.7999C33.2998 25.5866 34.2865 24.5999 35.4998 24.5999C36.713 24.5999 37.6997 25.5866 37.6997 26.7998C37.6997 28.0131 36.7131 28.9998 35.4998 28.9998ZM25.628 27.8998H27.7999C28.104 27.8998 28.3498 27.6534 28.3498 27.3499C28.3498 27.0463 28.104 26.7999 27.7999 26.7999H26.1873C27.3147 23.6116 30.0086 21.2104 33.2998 20.4601V21.85C33.2998 22.1535 33.5456 22.3999 33.8497 22.3999C34.1539 22.3999 34.3997 22.1535 34.3997 21.85V19.298C34.6725 19.2078 35.085 19.1 35.4997 19.1C35.915 19.1 36.3275 19.2078 36.5997 19.298V21.85C36.5997 22.1535 36.8455 22.3999 37.1497 22.3999C37.4538 22.3999 37.6996 22.1535 37.6996 21.85V20.4601C40.9908 21.2103 43.6847 23.6116 44.8121 26.7999H43.1995C42.8954 26.7999 42.6496 27.0463 42.6496 27.3499C42.6496 27.6534 42.8954 27.8998 43.1995 27.8998H45.3995V28.9998H37.9527C38.4774 28.4152 38.7997 27.6458 38.7997 26.7999C38.7997 24.98 37.3197 23.4999 35.4998 23.4999C33.6798 23.4999 32.1998 24.98 32.1998 26.7999C32.1998 27.6458 32.5221 28.4152 33.0468 28.9998H25.628V27.8998Z" fill="white" fill-opacity="0.65"/>
<path d="M34.9504 38.8994C34.6462 38.8994 34.4004 39.1458 34.4004 39.4494C34.4004 39.753 34.6462 39.9994 34.9504 39.9994H36.0504C36.3545 39.9994 36.6003 39.753 36.6003 39.4494C36.6003 39.1458 36.3545 38.8994 36.0504 38.8994H34.9504Z" fill="white" fill-opacity="0.65"/>
<path d="M51.9707 50.2756L51.4208 48.6257C50.8499 46.9119 49.5899 45.1706 45.0497 44.6091C45.015 44.5954 44.9831 44.575 44.9446 44.5684C44.8764 44.5563 44.8099 44.5613 44.7461 44.5728C43.8474 44.4755 42.8255 44.4221 41.6623 44.4221H41.6606C41.6237 44.4139 41.5891 44.3995 41.5501 44.3995C41.5347 44.3995 40.0134 44.3913 39.0454 43.9078C38.7732 43.772 38.4437 43.882 38.3073 44.1537C38.1714 44.4253 38.282 44.7559 38.5537 44.8918C39.2879 45.258 40.2136 45.4033 40.8411 45.461C40.406 46.7909 39.0162 49.8994 35.4996 49.8994C31.9626 49.8994 30.5909 46.814 30.1586 45.461C30.7867 45.4033 31.7118 45.258 32.4455 44.8918C32.7172 44.7559 32.8278 44.4254 32.6913 44.1537C32.555 43.8819 32.2255 43.772 31.9538 43.9078C30.9858 44.3913 29.4645 44.3995 29.4491 44.3995C22.0121 44.3995 20.31 46.4307 19.5784 48.6257L19.0285 50.2756C18.9322 50.5638 19.0879 50.8751 19.3761 50.9714C19.6665 51.0676 19.975 50.9114 20.0712 50.6232L20.6212 48.9732C20.9979 47.8447 21.5986 46.0567 26.7773 45.6062C26.9225 46.5302 27.2497 48.7874 27.2497 50.4495C27.2497 50.753 27.4955 50.9994 27.7997 50.9994C28.1038 50.9994 28.3496 50.753 28.3496 50.4495C28.3496 48.7511 28.0373 46.5412 27.8794 45.5342C28.2441 45.5177 28.6236 45.5062 29.0272 45.5018C29.4365 46.8822 31.0331 50.9994 35.4996 50.9994C39.9655 50.9994 41.5621 46.8987 41.9724 45.5237C42.7996 45.5309 43.5393 45.5677 44.2076 45.6271C44.047 46.6605 43.7495 48.7928 43.7495 50.4494C43.7495 50.753 43.9953 50.9994 44.2995 50.9994C44.6036 50.9994 44.8494 50.753 44.8494 50.4494C44.8494 48.8632 45.1481 46.7419 45.3021 45.7541C49.5067 46.3707 50.0755 48.0663 50.3779 48.9732L50.9279 50.6232C51.0043 50.8536 51.2188 50.9999 51.4493 50.9999C51.5071 50.9999 51.5654 50.9906 51.6232 50.9713C51.9113 50.8751 52.067 50.5639 51.9707 50.2756Z" fill="white" fill-opacity="0.65"/>
<path d="M35.2541 36.7579C34.2921 37.2392 33.3088 37.2501 33.3 37.2501C32.9958 37.2501 32.75 37.4965 32.75 37.8001C32.75 38.1037 32.9958 38.3501 33.3 38.3501C33.3467 38.3501 34.3862 38.344 35.4999 37.8573C36.6136 38.344 37.6531 38.3501 37.6998 38.3501C38.0029 38.3501 38.2482 38.1048 38.2493 37.8017C38.2498 37.4987 38.0046 37.2518 37.7015 37.2501C37.6911 37.2501 36.7077 37.2391 35.7457 36.7579C35.5912 36.681 35.4086 36.681 35.2541 36.7579Z" fill="white" fill-opacity="0.65"/>
<path d="M33.8495 32.2998H31.6496C31.3454 32.2998 31.0996 32.5462 31.0996 32.8498C31.0996 33.1533 31.3454 33.3997 31.6496 33.3997H32.1995C32.1995 33.7033 32.4454 33.9497 32.7495 33.9497C33.0537 33.9497 33.2995 33.7033 33.2995 33.3997H33.8495C34.1536 33.3997 34.3994 33.1533 34.3994 32.8498C34.3994 32.5462 34.1537 32.2998 33.8495 32.2998Z" fill="white" fill-opacity="0.65"/>
<path d="M37.6996 33.3997C37.6996 33.7033 37.9454 33.9497 38.2496 33.9497C38.5537 33.9497 38.7996 33.7033 38.7996 33.3997H39.3495C39.6537 33.3997 39.8995 33.1533 39.8995 32.8498C39.8995 32.5462 39.6537 32.2998 39.3495 32.2998H37.1496C36.8454 32.2998 36.5996 32.5462 36.5996 32.8498C36.5996 33.1533 36.8454 33.3997 37.1496 33.3997H37.6996Z" fill="white" fill-opacity="0.65"/>
</g>
<defs>
<clipPath id="clip0">
<rect width="33" height="33" fill="white" transform="translate(19 18)"/>
</clipPath>
</defs>
</svg>
