<svg width="71" height="71" viewBox="0 0 71 71" fill="none" xmlns="http://www.w3.org/2000/svg">
<circle cx="35.5" cy="35.5" r="35" stroke="white" stroke-opacity="0.3"/>
<path d="M50.7607 45.3385C50.7719 45.2179 50.7493 45.0947 50.69 44.9845L47.7736 39.5689C47.6647 39.3666 47.4535 39.2403 47.2237 39.2402L39.9694 39.2354V33.8174C41.3236 32.7164 43.3255 30.3165 43.3255 27.3575C43.3254 23.3693 39.9949 20 36.0527 20C34.1763 20 32.2784 20.7813 30.8456 22.1435C29.3532 23.5623 28.5313 25.414 28.5313 27.3575C28.5313 30.2944 30.7283 32.7182 31.8828 33.7886V39.234L24.6596 39.219C24.6592 39.219 24.6587 39.219 24.6583 39.219C24.4262 39.219 24.2131 39.3477 24.1051 39.5532L21.2591 44.9689C21.1581 45.161 21.1644 45.3916 21.2749 45.5781C21.2748 45.5819 21.2744 45.5855 21.2744 45.5893V49.2765C21.2744 49.6208 21.5529 49.9003 21.8972 49.9015L50.1863 50C50.1871 50 50.1877 50 50.1885 50C50.3539 50 50.5125 49.9344 50.6297 49.8177C50.7474 49.7004 50.8135 49.5411 50.8135 49.375V45.5893C50.8135 45.5001 50.7945 45.4154 50.7607 45.3385ZM29.7813 27.3575C29.7813 24.1039 32.7119 21.25 36.0527 21.25C39.3174 21.25 42.0754 24.0469 42.0754 27.3575C42.0754 29.6661 40.4672 31.9053 38.973 33.0089C38.8135 33.1268 38.7193 33.3133 38.7193 33.5117V40.8144C38.6908 40.903 38.4861 41.1759 38.0234 41.4719C37.5844 41.7528 37.1532 41.8997 36.9542 41.8997H35.1387C34.931 41.8997 34.4587 41.752 33.9579 41.4695C33.4266 41.1698 33.1807 40.8986 33.1328 40.7983V33.5116C33.1328 33.3328 33.0562 33.1625 32.9224 33.0439C31.9779 32.2069 29.7813 29.9771 29.7813 27.3575ZM25.0355 40.4698L31.8828 40.4841V40.8299C31.8828 41.5336 32.6003 42.1132 33.2022 42.4757C33.7434 42.8015 34.5363 43.1497 35.1387 43.1497H36.9542C37.7152 43.1497 38.5582 42.6204 38.7984 42.4583C39.2357 42.1629 39.9693 41.5588 39.9693 40.8299V40.4854L46.8499 40.4899L49.0928 44.6551L22.8464 44.6354L25.0355 40.4698ZM49.5634 48.7478L22.5244 48.6537V45.8852L49.5634 45.9054V48.7478Z" fill="white" fill-opacity="0.65"/>
<path d="M33.3286 25.549C33.7037 25.1742 34.5236 24.768 35.1461 24.7607C35.4913 24.7567 35.7678 24.4737 35.7638 24.1285C35.7598 23.7834 35.4769 23.5042 35.1316 23.5109C34.125 23.5226 32.9962 24.1141 32.4454 24.6645C31.8636 25.2452 31.2247 26.5349 31.2071 27.6059C31.2014 27.951 31.4766 28.2354 31.8217 28.2411C31.8252 28.2412 31.8287 28.2412 31.8322 28.2412C32.1726 28.2412 32.4513 27.968 32.4569 27.6264C32.4683 26.9351 32.9347 25.9421 33.3286 25.549Z" fill="white" fill-opacity="0.65"/>
</svg>
