<svg width="25" height="25" viewBox="0 0 25 25" fill="none" xmlns="http://www.w3.org/2000/svg">
<g clip-path="url(#clip0)">
<path d="M6.03312 11.814L17.5964 0.282708C17.9752 -0.0948779 18.5886 -0.0942432 18.9668 0.284662C19.3447 0.663518 19.3438 1.27724 18.9649 1.65512L8.0899 12.5L18.9652 23.3449C19.3441 23.7229 19.3451 24.3362 18.9672 24.7151C18.7776 24.905 18.5292 25 18.2808 25C18.0331 25 17.7857 24.9057 17.5964 24.717L6.03312 13.1861C5.85065 13.0045 5.74826 12.7575 5.74826 12.5C5.74826 12.2426 5.85094 11.9958 6.03312 11.814Z" fill="white"/>
</g>
<defs>
<clipPath id="clip0">
<rect width="25" height="25" fill="white" transform="matrix(-1 0 0 1 25 0)"/>
</clipPath>
</defs>
</svg>
