<svg width="18" height="18" viewBox="0 0 18 18" fill="none" xmlns="http://www.w3.org/2000/svg">
<path d="M14.2263 11.1504C13.8577 10.7667 13.4133 10.5615 12.9422 10.5615C12.4749 10.5615 12.0266 10.7629 11.6429 11.1466L10.4424 12.3433C10.3437 12.2901 10.2449 12.2407 10.1499 12.1913C10.0131 12.1229 9.88397 12.0583 9.7738 11.99C8.64929 11.2757 7.62735 10.345 6.6472 9.14069C6.17232 8.54044 5.85321 8.03517 5.62147 7.5223C5.93299 7.23737 6.22171 6.94105 6.50284 6.65612C6.60921 6.54975 6.71559 6.43958 6.82196 6.33321C7.61975 5.53541 7.61975 4.50208 6.82196 3.70428L5.78482 2.66715C5.66705 2.54938 5.54549 2.42781 5.43152 2.30624C5.20357 2.0707 4.96424 1.82757 4.7173 1.59962C4.34879 1.23492 3.90811 1.04117 3.44463 1.04117C2.98115 1.04117 2.53286 1.23492 2.15296 1.59962C2.14916 1.60342 2.14916 1.60342 2.14536 1.60722L0.853692 2.91029C0.367417 3.39656 0.0900887 3.98921 0.0293043 4.67683C-0.0618723 5.78615 0.264844 6.81948 0.515579 7.49571C1.13102 9.15588 2.05038 10.6945 3.42183 12.3433C5.0858 14.3302 7.08789 15.8991 9.3749 17.0047C10.2487 17.4188 11.415 17.9088 12.718 17.9924C12.7978 17.9962 12.8814 18 12.9574 18C13.835 18 14.572 17.6847 15.1494 17.0578C15.1532 17.0503 15.1608 17.0465 15.1646 17.0389C15.3622 16.7995 15.5901 16.583 15.8294 16.3512C15.9928 16.1955 16.16 16.0321 16.3233 15.8612C16.6994 15.4699 16.897 15.014 16.897 14.5467C16.897 14.0756 16.6956 13.6235 16.3119 13.2436L14.2263 11.1504ZM15.5863 15.1507C15.5825 15.1507 15.5825 15.1545 15.5863 15.1507C15.4381 15.3103 15.2862 15.4547 15.1228 15.6142C14.8759 15.8498 14.6252 16.0967 14.3896 16.374C14.0059 16.7843 13.5538 16.9781 12.9612 16.9781C12.9042 16.9781 12.8434 16.9781 12.7864 16.9743C11.6581 16.9021 10.6096 16.4614 9.82319 16.0853C7.67294 15.0444 5.78482 13.5665 4.21583 11.6936C2.92036 10.1322 2.05418 8.6886 1.48053 7.1386C1.12722 6.19264 0.998055 5.45563 1.05504 4.76041C1.09303 4.31593 1.26399 3.94742 1.57931 3.6321L2.87477 2.33663C3.06092 2.16188 3.25847 2.0669 3.45222 2.0669C3.69156 2.0669 3.88531 2.21127 4.00688 2.33284C4.01068 2.33664 4.01448 2.34043 4.01828 2.34423C4.25002 2.56078 4.47036 2.78492 4.7021 3.02426C4.81987 3.14583 4.94144 3.2674 5.06301 3.39276L6.10014 4.4299C6.50284 4.83259 6.50284 5.2049 6.10014 5.60759C5.98997 5.71777 5.8836 5.82794 5.77343 5.93431C5.45431 6.26103 5.15039 6.56495 4.81987 6.86127C4.81227 6.86887 4.80468 6.87267 4.80088 6.88027C4.47416 7.20698 4.53495 7.5261 4.60333 7.74264C4.60713 7.75404 4.61093 7.76544 4.61473 7.77684C4.88446 8.43027 5.26436 9.04571 5.84181 9.77892L5.84561 9.78272C6.89414 11.0744 7.99966 12.0811 9.21914 12.8523C9.3749 12.9511 9.53446 13.0309 9.68642 13.1069C9.82319 13.1752 9.95235 13.2398 10.0625 13.3082C10.0777 13.3158 10.0929 13.3272 10.1081 13.3348C10.2373 13.3994 10.3588 13.4298 10.4842 13.4298C10.7995 13.4298 10.9971 13.2322 11.0617 13.1676L12.3609 11.8684C12.4901 11.7392 12.6952 11.5835 12.9346 11.5835C13.1701 11.5835 13.3639 11.7316 13.4816 11.8608C13.4854 11.8646 13.4854 11.8646 13.4892 11.8684L15.5825 13.9616C15.9738 14.3491 15.9738 14.748 15.5863 15.1507Z" fill="white"/>
<path d="M9.7288 4.28175C10.7241 4.44891 11.6283 4.91999 12.3501 5.6418C13.0719 6.36361 13.5392 7.26778 13.7102 8.26313C13.752 8.51386 13.9685 8.68862 14.2154 8.68862C14.2458 8.68862 14.2724 8.68482 14.3028 8.68102C14.5839 8.63543 14.7701 8.3695 14.7245 8.08837C14.5194 6.88408 13.9495 5.78616 13.0795 4.91619C12.2096 4.04621 11.1116 3.47636 9.90735 3.27121C9.62622 3.22562 9.36409 3.41177 9.3147 3.6891C9.26532 3.96643 9.44767 4.23616 9.7288 4.28175Z" fill="white"/>
<path d="M17.9792 7.94021C17.6411 5.95712 16.7066 4.15258 15.2705 2.71655C13.8345 1.28052 12.03 0.345963 10.0469 0.00784947C9.76955 -0.0415378 9.50742 0.148413 9.45803 0.425742C9.41245 0.70687 9.5986 0.969002 9.87973 1.01839C11.6501 1.31851 13.2647 2.1581 14.5487 3.43837C15.8328 4.72244 16.6686 6.33702 16.9687 8.10737C17.0105 8.3581 17.227 8.53286 17.474 8.53286C17.5044 8.53286 17.531 8.52906 17.5614 8.52526C17.8387 8.48347 18.0286 8.21754 17.9792 7.94021Z" fill="white"/>
</svg>
