<svg width="41" height="40" viewBox="0 0 41 40" fill="none" xmlns="http://www.w3.org/2000/svg">
<circle cx="20.168" cy="20" r="20" fill="#FF1B20"/>
<path d="M31.6846 25.6263C31.6216 25.5216 31.2317 24.6816 29.3557 22.9551C27.3918 21.1471 27.6556 21.4407 30.0211 18.3146C31.4618 16.4107 32.0378 15.2481 31.8575 14.751C31.686 14.2772 30.6264 14.4022 30.6264 14.4022L27.103 14.4226C27.103 14.4226 26.8422 14.3877 26.6472 14.5025C26.4582 14.6159 26.3365 14.8775 26.3365 14.8775C26.3365 14.8775 25.7781 16.3511 25.0336 17.6039C23.4639 20.2475 22.8351 20.387 22.5787 20.2228C21.9821 19.8406 22.1316 18.6852 22.1316 17.8655C22.1316 15.3033 22.523 14.2351 21.3681 13.959C20.9841 13.8674 20.7027 13.8064 19.7222 13.7962C18.4646 13.7831 17.3991 13.8006 16.7968 14.0927C16.3952 14.2874 16.0859 14.722 16.275 14.7467C16.508 14.7772 17.0357 14.8876 17.3156 15.2655C17.6776 15.7524 17.6644 16.8482 17.6644 16.8482C17.6644 16.8482 17.8725 19.8638 17.1793 20.2388C16.703 20.496 16.0508 19.9714 14.6511 17.5719C13.9344 16.3439 13.3921 14.985 13.3921 14.985C13.3921 14.985 13.2881 14.7321 13.1019 14.597C12.8762 14.4328 12.5596 14.3804 12.5596 14.3804L9.20923 14.4008C9.20923 14.4008 8.70652 14.4153 8.52185 14.6319C8.3577 14.8252 8.50866 15.2234 8.50866 15.2234C8.50866 15.2234 11.1321 21.3084 14.1015 24.3764C16.8261 27.1886 19.9185 27.004 19.9185 27.004H21.3197C21.3197 27.004 21.7433 26.9575 21.9587 26.7265C22.158 26.5143 22.1507 26.1161 22.1507 26.1161C22.1507 26.1161 22.1228 24.2514 22.9964 23.9768C23.8567 23.7064 24.9618 25.7789 26.1328 26.5768C27.018 27.1799 27.6908 27.0476 27.6908 27.0476L30.8228 27.004C30.8228 27.004 32.4614 26.9038 31.6846 25.6263Z" fill="white"/>
</svg>
