<svg width="41" height="40" viewBox="0 0 41 40" fill="none" xmlns="http://www.w3.org/2000/svg">
<circle cx="20.7344" cy="20" r="20" fill="#FF1B20"/>
<path d="M31.0589 15.738C31.0104 14.6387 30.8326 13.8829 30.5779 13.228C30.3152 12.5329 29.9111 11.9105 29.3815 11.3931C28.8642 10.8677 28.2377 10.4594 27.5506 10.2008C26.8919 9.94614 26.1401 9.76837 25.0408 9.7199C23.9332 9.66732 23.5816 9.65517 20.7726 9.65517C17.9636 9.65517 17.612 9.66732 16.5086 9.71579C15.4093 9.76426 14.6535 9.94219 13.9988 10.1967C13.3035 10.4594 12.6811 10.8636 12.1637 11.3931C11.6383 11.9105 11.2302 12.537 10.9714 13.2241C10.7168 13.8829 10.539 14.6346 10.4905 15.7339C10.4379 16.8414 10.4258 17.193 10.4258 20.002C10.4258 22.811 10.4379 23.1626 10.4864 24.2661C10.5349 25.3654 10.7128 26.1211 10.9675 26.776C11.2302 27.4712 11.6383 28.0935 12.1637 28.6109C12.6811 29.1363 13.3076 29.5446 13.9947 29.8032C14.6535 30.0579 15.4052 30.2357 16.5046 30.2841C17.6079 30.3328 17.9597 30.3448 20.7687 30.3448C23.5777 30.3448 23.9293 30.3328 25.0327 30.2841C26.132 30.2357 26.8878 30.0579 27.5425 29.8032C28.933 29.2657 30.0323 28.1663 30.5699 26.776C30.8244 26.1172 31.0023 25.3654 31.0508 24.2661C31.0993 23.1626 31.1114 22.811 31.1114 20.002C31.1114 17.193 31.1073 16.8414 31.0589 15.738ZM29.1957 24.1852C29.1512 25.1957 28.9815 25.7413 28.84 26.105C28.4923 27.0064 27.777 27.7217 26.8757 28.0694C26.5119 28.2109 25.9623 28.3806 24.9558 28.4249C23.8646 28.4736 23.5373 28.4856 20.7767 28.4856C18.0162 28.4856 17.6848 28.4736 16.5975 28.4249C15.587 28.3806 15.0414 28.2109 14.6777 28.0694C14.2291 27.9036 13.8208 27.6409 13.4894 27.2974C13.1459 26.9619 12.8832 26.5577 12.7174 26.1091C12.576 25.7454 12.4062 25.1957 12.3619 24.1893C12.3132 23.0981 12.3012 22.7706 12.3012 20.0101C12.3012 17.2495 12.3132 16.9181 12.3619 15.831C12.4062 14.8205 12.576 14.2749 12.7174 13.9111C12.8832 13.4625 13.1459 13.0543 13.4936 12.7228C13.8289 12.3792 14.2331 12.1165 14.6818 11.9509C15.0455 11.8094 15.5953 11.6397 16.6016 11.5952C17.6929 11.5467 18.0203 11.5346 20.7807 11.5346C23.5453 11.5346 23.8726 11.5467 24.9599 11.5952C25.9704 11.6397 26.516 11.8094 26.8798 11.9509C27.3283 12.1165 27.7366 12.3792 28.068 12.7228C28.4115 13.0583 28.6742 13.4625 28.84 13.9111C28.9815 14.2749 29.1512 14.8245 29.1957 15.831C29.2442 16.9222 29.2563 17.2495 29.2563 20.0101C29.2563 22.7706 29.2442 23.0939 29.1957 24.1852Z" fill="white"/>
<path d="M20.7641 14.687C17.8299 14.687 15.4492 17.0675 15.4492 20.0018C15.4492 22.9362 17.8299 25.3167 20.7641 25.3167C23.6985 25.3167 26.079 22.9362 26.079 20.0018C26.079 17.0675 23.6985 14.687 20.7641 14.687ZM20.7641 23.4495C18.8605 23.4495 17.3165 21.9056 17.3165 20.0018C17.3165 18.0981 18.8605 16.5542 20.7641 16.5542C22.6678 16.5542 24.2117 18.0981 24.2117 20.0018C24.2117 21.9056 22.6678 23.4495 20.7641 23.4495Z" fill="white"/>
<path d="M27.552 14.4768C27.552 15.162 26.9965 15.7176 26.3111 15.7176C25.6259 15.7176 25.0703 15.162 25.0703 14.4768C25.0703 13.7915 25.6259 13.2361 26.3111 13.2361C26.9965 13.2361 27.552 13.7915 27.552 14.4768Z" fill="white"/>
</svg>
