<svg width="40" height="40" viewBox="0 0 40 40" fill="none" xmlns="http://www.w3.org/2000/svg">
<circle cx="20" cy="20" r="20" fill="#FF1B20"/>
<path d="M29.7793 25.2057L27.0846 22.511C26.1222 21.5486 24.4861 21.9336 24.1012 23.1847C23.8125 24.0509 22.8501 24.5321 21.9839 24.3396C20.0591 23.8584 17.4607 21.3561 16.9795 19.3351C16.6908 18.4689 17.2682 17.5065 18.1344 17.2179C19.3855 16.8329 19.7704 15.1968 18.808 14.2344L16.1133 11.5397C15.3434 10.8661 14.1885 10.8661 13.5149 11.5397L11.6863 13.3683C9.85778 15.2931 11.8788 20.3938 16.402 24.917C20.9253 29.4402 26.026 31.5575 27.9508 29.6327L29.7793 27.8042C30.453 27.0343 30.453 25.8794 29.7793 25.2057Z" fill="white"/>
</svg>
