<svg width="70" height="70" viewBox="0 0 70 70" fill="none" xmlns="http://www.w3.org/2000/svg">
<path d="M35 70C25.6512 70 16.8618 66.3595 10.2512 59.7488C3.64055 53.1382 0 44.3488 0 35C0 25.6512 3.64068 16.8619 10.2512 10.2512C16.8617 3.64041 25.6512 0 35 0C44.3488 0 53.1382 3.64055 59.7488 10.2512C66.3595 16.8618 70 25.6512 70 35C70 44.3488 66.3593 53.1381 59.7488 59.7488C53.1383 66.3596 44.3488 70 35 70ZM35 4.375C18.1133 4.375 4.375 18.1133 4.375 35C4.375 51.8867 18.1133 65.625 35 65.625C51.8867 65.625 65.625 51.8867 65.625 35C65.625 18.1133 51.8867 4.375 35 4.375Z" fill="white"/>
<path d="M35 32.8125C31.9845 32.8125 29.5312 30.3592 29.5312 27.3438C29.5312 24.3283 31.9845 21.875 35 21.875C38.0155 21.875 40.4688 24.3283 40.4688 27.3438C40.4688 28.5518 41.4481 29.5312 42.6562 29.5312C43.8644 29.5312 44.8438 28.5518 44.8438 27.3438C44.8438 22.6678 41.5655 18.7458 37.1875 17.748V15.3125C37.1875 14.1045 36.2082 13.125 35 13.125C33.7918 13.125 32.8125 14.1045 32.8125 15.3125V17.748C28.4345 18.7458 25.1562 22.6678 25.1562 27.3438C25.1562 32.7716 29.5721 37.1875 35 37.1875C38.0155 37.1875 40.4688 39.6408 40.4688 42.6562C40.4688 45.6717 38.0155 48.125 35 48.125C31.9845 48.125 29.5312 45.6717 29.5312 42.6562C29.5312 41.4482 28.5519 40.4688 27.3438 40.4688C26.1356 40.4688 25.1562 41.4482 25.1562 42.6562C25.1562 47.3322 28.4345 51.2542 32.8125 52.252V54.6875C32.8125 55.8955 33.7918 56.875 35 56.875C36.2082 56.875 37.1875 55.8955 37.1875 54.6875V52.252C41.5655 51.2542 44.8438 47.3322 44.8438 42.6562C44.8438 37.2284 40.4279 32.8125 35 32.8125Z" fill="white"/>
</svg>
