<svg width="29" height="29" viewBox="0 0 29 29" fill="none" xmlns="http://www.w3.org/2000/svg">
<circle cx="14.5" cy="14.5" r="14.5" fill="white"/>
<path d="M21.9863 11.41C21.9512 10.613 21.8223 10.0651 21.6377 9.5903C21.4472 9.08632 21.1542 8.63511 20.7703 8.26001C20.3952 7.87908 19.941 7.58308 19.4428 7.39559C18.9653 7.21096 18.4202 7.08207 17.6232 7.04693C16.8202 7.00881 16.5653 7 14.5288 7C12.4923 7 12.2374 7.00881 11.4374 7.04395C10.6404 7.07909 10.0924 7.20809 9.61776 7.39261C9.11367 7.58308 8.66245 7.8761 8.28736 8.26001C7.90642 8.63511 7.61053 9.0893 7.42293 9.58744C7.2383 10.0651 7.10941 10.6101 7.07427 11.4071C7.03616 12.21 7.02734 12.4649 7.02734 14.5015C7.02734 16.538 7.03616 16.7929 7.0713 17.5929C7.10644 18.3899 7.23544 18.9378 7.42007 19.4126C7.61053 19.9166 7.90642 20.3678 8.28736 20.7429C8.66245 21.1239 9.11664 21.4199 9.61479 21.6073C10.0924 21.792 10.6374 21.9209 11.4345 21.956C12.2344 21.9913 12.4894 22 14.5259 22C16.5625 22 16.8174 21.9913 17.6174 21.956C18.4144 21.9209 18.9623 21.792 19.437 21.6073C20.4451 21.2176 21.2421 20.4206 21.6318 19.4126C21.8163 18.935 21.9453 18.3899 21.9805 17.5929C22.0156 16.7929 22.0244 16.538 22.0244 14.5015C22.0244 12.4649 22.0215 12.21 21.9863 11.41ZM20.6355 17.5343C20.6033 18.2668 20.4802 18.6624 20.3777 18.9262C20.1256 19.5796 19.607 20.0983 18.9535 20.3503C18.6898 20.4529 18.2913 20.5759 17.5616 20.6081C16.7705 20.6433 16.5332 20.652 14.5318 20.652C12.5304 20.652 12.2901 20.6433 11.5018 20.6081C10.7693 20.5759 10.3737 20.4529 10.11 20.3503C9.78476 20.2301 9.48876 20.0397 9.2485 19.7906C8.99943 19.5473 8.80896 19.2543 8.68878 18.9291C8.58622 18.6654 8.46317 18.2668 8.43101 17.5373C8.39575 16.7461 8.38705 16.5087 8.38705 14.5073C8.38705 12.5059 8.39575 12.2657 8.43101 11.4775C8.46317 10.7449 8.58622 10.3493 8.68878 10.0856C8.80896 9.76028 8.99943 9.46439 9.25148 9.22402C9.4946 8.97495 9.78763 8.78448 10.1129 8.66441C10.3767 8.56185 10.7752 8.4388 11.5048 8.40652C12.296 8.37138 12.5334 8.36257 14.5346 8.36257C16.539 8.36257 16.7763 8.37138 17.5646 8.40652C18.2972 8.4388 18.6928 8.56185 18.9565 8.66441C19.2817 8.78448 19.5777 8.97495 19.8179 9.22402C20.067 9.46726 20.2575 9.76028 20.3777 10.0856C20.4802 10.3493 20.6033 10.7478 20.6355 11.4775C20.6707 12.2686 20.6795 12.5059 20.6795 14.5073C20.6795 16.5087 20.6707 16.7431 20.6355 17.5343Z" fill="#0C141A"/>
<path d="M14.5291 10.6479C12.4018 10.6479 10.6758 12.3738 10.6758 14.5012C10.6758 16.6287 12.4018 18.3545 14.5291 18.3545C16.6565 18.3545 18.3824 16.6287 18.3824 14.5012C18.3824 12.3738 16.6565 10.6479 14.5291 10.6479ZM14.5291 17.0008C13.149 17.0008 12.0295 15.8814 12.0295 14.5012C12.0295 13.121 13.149 12.0017 14.5291 12.0017C15.9093 12.0017 17.0286 13.121 17.0286 14.5012C17.0286 15.8814 15.9093 17.0008 14.5291 17.0008Z" fill="#0C141A"/>
<path d="M19.4321 10.4958C19.4321 10.9925 19.0293 11.3953 18.5324 11.3953C18.0356 11.3953 17.6328 10.9925 17.6328 10.4958C17.6328 9.99887 18.0356 9.59619 18.5324 9.59619C19.0293 9.59619 19.4321 9.99887 19.4321 10.4958Z" fill="#0C141A"/>
</svg>
