<svg width="18" height="18" viewBox="0 0 18 18" fill="none" xmlns="http://www.w3.org/2000/svg">
<path d="M11.6366 0C8.282 0 5.55282 2.72918 5.55282 6.08375C5.55282 6.82952 5.68533 7.55423 5.94696 8.24245L0.129867 14.06C0.0467227 14.1431 0 14.2559 0 14.3735V17.5566C0 17.8015 0.198492 18 0.443356 18H3.06657C3.18403 18 3.29667 17.9534 3.37982 17.8704L4.26382 16.9877C4.34714 16.9046 4.39393 16.7917 4.39393 16.674V15.5885H5.47805C5.72291 15.5885 5.9214 15.39 5.9214 15.1451V14.7106H6.35597C6.6008 14.7106 6.79932 14.5121 6.79932 14.2673V13.3132H7.75332C7.87089 13.3132 7.98363 13.2665 8.06681 13.1834L9.47732 11.7729C10.1656 12.0348 10.8905 12.1674 11.6365 12.1674C14.9911 12.1674 17.7203 9.43826 17.7203 6.08368C17.7203 2.72918 14.9912 0 11.6366 0ZM11.6366 11.2807C10.9109 11.2807 10.209 11.1342 9.55044 10.845C9.38014 10.7703 9.18837 10.8114 9.06279 10.9338C9.06142 10.9351 9.06008 10.9362 9.05875 10.9375L7.56974 12.4265H6.35604C6.11118 12.4265 5.91268 12.625 5.91268 12.8699V13.8239H5.47812C5.23329 13.8239 5.03476 14.0224 5.03476 14.2673V14.7018H3.95061C3.70579 14.7018 3.50726 14.9003 3.50726 15.1451V16.4901L2.88313 17.1133H0.886781V16.4867L6.3058 11.0678C6.46165 10.9119 6.46165 10.6593 6.3058 10.5035C6.14995 10.3476 5.89739 10.3476 5.74144 10.5035L0.886781 15.3581V14.5571L6.78234 8.66116C6.78368 8.65983 6.7847 8.6586 6.78593 8.6573C6.90834 8.53182 6.94962 8.34005 6.87488 8.16961C6.58603 7.51106 6.43964 6.80924 6.43964 6.08379C6.43964 3.21813 8.77103 0.886746 11.6367 0.886746C14.5023 0.886746 16.8337 3.2181 16.8337 6.08379C16.8336 8.94938 14.5022 11.2807 11.6366 11.2807Z" fill="white"/>
<path d="M13.4868 2.57129C12.5711 2.57129 11.8262 3.31625 11.8262 4.23196C11.8262 5.14768 12.5711 5.89264 13.4868 5.89264C14.4026 5.89264 15.1475 5.14768 15.1475 4.23196C15.1475 3.31625 14.4026 2.57129 13.4868 2.57129ZM13.4868 5.00593C13.0601 5.00593 12.7129 4.65873 12.7129 4.23196C12.7129 3.8052 13.0601 3.458 13.4868 3.458C13.9136 3.458 14.2608 3.8052 14.2608 4.23196C14.2608 4.65873 13.9136 5.00593 13.4868 5.00593Z" fill="white"/>
</svg>
