<svg width="18" height="18" viewBox="0 0 18 18" fill="none" xmlns="http://www.w3.org/2000/svg">
<path d="M11.7772 0C8.42263 0 5.69345 2.72918 5.69345 6.08375C5.69345 6.82952 5.82595 7.55423 6.08759 8.24245L0.270492 14.06C0.187348 14.1431 0.140625 14.2559 0.140625 14.3735V17.5566C0.140625 17.8015 0.339117 18 0.583981 18H3.2072C3.32466 18 3.4373 17.9534 3.52044 17.8704L4.40445 16.9877C4.48777 16.9046 4.53456 16.7917 4.53456 16.674V15.5885H5.61867C5.86354 15.5885 6.06203 15.39 6.06203 15.1451V14.7106H6.49659C6.74142 14.7106 6.93995 14.5121 6.93995 14.2673V13.3132H7.89395C8.01151 13.3132 8.12426 13.2665 8.20744 13.1834L9.61794 11.7729C10.3063 12.0348 11.0311 12.1674 11.7771 12.1674C15.1317 12.1674 17.8609 9.43826 17.8609 6.08368C17.8609 2.72918 15.1318 0 11.7772 0ZM11.7772 11.2807C11.0515 11.2807 10.3496 11.1342 9.69107 10.845C9.52077 10.7703 9.32899 10.8114 9.20341 10.9338C9.20204 10.9351 9.20071 10.9362 9.19937 10.9375L7.71036 12.4265H6.49666C6.2518 12.4265 6.05331 12.625 6.05331 12.8699V13.8239H5.61874C5.37391 13.8239 5.17539 14.0224 5.17539 14.2673V14.7018H4.09124C3.84641 14.7018 3.64788 14.9003 3.64788 15.1451V16.4901L3.02375 17.1133H1.02741V16.4867L6.44643 11.0678C6.60227 10.9119 6.60227 10.6593 6.44643 10.5035C6.29058 10.3476 6.03802 10.3476 5.88206 10.5035L1.02741 15.3581V14.5571L6.92297 8.66116C6.9243 8.65983 6.92532 8.6586 6.92655 8.6573C7.04897 8.53182 7.09024 8.34005 7.0155 8.16961C6.72666 7.51106 6.58027 6.80924 6.58027 6.08379C6.58027 3.21813 8.91165 0.886746 11.7773 0.886746C14.643 0.886746 16.9743 3.2181 16.9743 6.08379C16.9742 8.94938 14.6428 11.2807 11.7772 11.2807Z" fill="white"/>
</svg>
