<svg width="70" height="70" viewBox="0 0 70 70" fill="none" xmlns="http://www.w3.org/2000/svg">
<g clip-path="url(#clip0)">
<path d="M65.0851 61.7969L69.4579 57.0311C70.6624 55.7186 69.7277 53.5938 67.9471 53.5938H56.15V51.543C56.15 50.4104 55.2319 49.4922 54.0994 49.4922H50.576V43.7801C50.576 40.795 52.6053 37.5307 54.1313 34.4594C55.2038 32.3058 55.838 30.1355 55.838 27.5447V17.0903V17.0898V9.67039C55.838 6.59982 53.34 4.10156 50.2696 4.10156H49.1026C48.1206 4.10156 47.1979 4.35805 46.3961 4.80607C45.3744 3.54348 43.8137 2.73438 42.067 2.73438H40.9C39.9181 2.73438 38.9953 2.99086 38.1935 3.43875C37.1719 2.17629 35.6113 1.36719 33.8647 1.36719H32.6971C31.7152 1.36719 30.7926 1.62367 29.9908 2.07156C28.9692 0.809102 27.4084 0 25.6618 0H24.4948C21.4243 0 18.9263 2.49812 18.9263 5.56883V15.0963C16.6235 15.4261 14.8006 17.1615 14.3013 19.3655C14.1124 20.1888 14.162 19.8054 14.162 29.46C14.162 31.4951 14.7525 33.4675 15.8698 35.1641C15.9861 35.3408 15.6755 34.9776 20.7882 40.7277V49.4922H15.9005C14.768 49.4922 13.8499 50.4104 13.8499 51.543V53.5938H2.05285C0.271539 53.5938 -0.662114 55.7192 0.541968 57.0311L4.91492 61.7969L0.541968 66.5626C-0.662524 67.8753 0.272222 70 2.05285 70H15.9007C17.0333 70 17.9513 69.0818 17.9513 67.9492V65.8984H52.0487V67.9492C52.0487 69.0818 52.9668 70 54.0994 70H67.9472C69.7285 70 70.6621 67.8746 69.4581 66.5626L65.0851 61.7969ZM49.1027 8.20312H50.2697C51.0787 8.20312 51.7369 8.86129 51.7369 9.67039V17.0898V17.0903C51.7369 18.2211 50.817 19.141 49.6862 19.141C48.5554 19.141 47.6356 18.2211 47.6356 17.0903V9.67039C47.6354 8.86129 48.2936 8.20312 49.1027 8.20312ZM40.9 6.83594H42.067C42.876 6.83594 43.5341 7.4941 43.5341 8.3032V17.0903C43.5341 18.2211 42.6143 19.141 41.4835 19.141C40.3527 19.141 39.4328 18.2211 39.4328 17.0903V17.0898V8.3032C39.4328 7.4941 40.091 6.83594 40.9 6.83594ZM32.6971 5.46875H33.8647C34.6735 5.46875 35.3316 6.12678 35.3316 6.93574V15.1287C34.6529 15.0127 34.5493 15.0391 31.2303 15.0391V6.93574C31.2303 6.12678 31.8883 5.46875 32.6971 5.46875ZM24.4948 4.10156H25.6618C26.4708 4.10156 27.129 4.75973 27.129 5.56883V15.0391H23.0276V5.56883C23.0276 4.75973 23.6859 4.10156 24.4948 4.10156ZM24.3714 38.585L19.2205 32.7921C18.5939 31.7938 18.2633 30.6447 18.2633 29.4602V20.6049C18.2633 19.7967 18.9175 19.1406 19.7262 19.1406H34.2914C35.4222 19.1406 36.342 20.0606 36.342 21.1914C36.342 22.3237 35.4237 23.2422 34.2914 23.2422H27.1098C26.0583 23.2422 25.1773 24.0375 25.0699 25.0835C24.9625 26.1296 25.6635 27.0873 26.693 27.301C26.6998 27.3023 27.4436 27.5103 28.1883 28.2044C29.3985 29.3323 30.0122 31.1132 30.0122 33.4975C30.0122 34.63 30.9303 35.5482 32.0629 35.5482C33.1955 35.5482 34.1135 34.63 34.1135 33.4975C34.1135 30.7848 33.4796 28.7893 32.661 27.3438H34.2914C37.0444 27.3438 39.3492 25.5433 40.143 23.0938C42.0986 23.5304 44.1101 22.993 45.5848 21.6712C47.2698 23.1816 49.6252 23.6389 51.7367 22.89C51.7367 28.1664 52 29.5403 50.4595 32.6327C48.8514 35.8688 46.4747 39.6695 46.4747 43.7802V49.4922H24.8897V39.9479C24.8897 39.4454 24.7052 38.9605 24.3714 38.585ZM13.85 65.8984H6.71769L9.20884 63.1835C9.92853 62.3993 9.92853 61.1946 9.20884 60.4104L6.71769 57.6953H13.85V65.8984ZM17.9513 61.7969C17.9513 60.8545 17.9513 54.4779 17.9513 53.5938H52.0487V61.7969H17.9513ZM60.7911 63.1835L63.2823 65.8984H56.15C56.15 65.0003 56.15 58.739 56.15 57.6953H63.2823L60.7912 60.4103C60.0714 61.1946 60.0714 62.3991 60.7911 63.1835Z" fill="white"/>
</g>
<defs>
<clipPath id="clip0">
<rect width="70" height="70" fill="white"/>
</clipPath>
</defs>
</svg>
