<svg width="16" height="15" viewBox="0 0 16 15" fill="none" xmlns="http://www.w3.org/2000/svg">
<path d="M14.9863 4.41004C14.9512 3.61303 14.8223 3.0651 14.6377 2.5903C14.4472 2.08632 14.1542 1.63511 13.7703 1.26001C13.3952 0.879078 12.941 0.583076 12.4428 0.395585C11.9653 0.210956 11.4202 0.0820702 10.6232 0.0469299C9.82025 0.00881367 9.56534 0 7.52881 0C5.49228 0 5.23737 0.00881367 4.43738 0.0439539C3.64038 0.0790941 3.09244 0.208094 2.61776 0.392609C2.11367 0.583076 1.66245 0.876102 1.28736 1.26001C0.906422 1.63511 0.610534 2.0893 0.422929 2.58744C0.2383 3.0651 0.109414 3.61006 0.0742737 4.40706C0.0361574 5.21002 0.0273438 5.46493 0.0273438 7.50147C0.0273438 9.538 0.0361574 9.79291 0.0712976 10.5929C0.106438 11.3899 0.235438 11.9378 0.420067 12.4126C0.610534 12.9166 0.906422 13.3678 1.28736 13.7429C1.66245 14.1239 2.11664 14.4199 2.61479 14.6073C3.09244 14.792 3.6374 14.9209 4.43452 14.956C5.23439 14.9913 5.48942 15 7.52595 15C9.56248 15 9.81739 14.9913 10.6174 14.956C11.4144 14.9209 11.9623 14.792 12.437 14.6073C13.4451 14.2176 14.2421 13.4206 14.6318 12.4126C14.8163 11.935 14.9453 11.3899 14.9805 10.5929C15.0156 9.79291 15.0244 9.538 15.0244 7.50147C15.0244 5.46493 15.0215 5.21002 14.9863 4.41004ZM13.6355 10.5343C13.6033 11.2668 13.4802 11.6624 13.3777 11.9262C13.1256 12.5796 12.607 13.0983 11.9535 13.3503C11.6898 13.4529 11.2913 13.5759 10.5616 13.6081C9.77046 13.6433 9.53317 13.652 7.53178 13.652C5.53039 13.652 5.29014 13.6433 4.50183 13.6081C3.76926 13.5759 3.37368 13.4529 3.10995 13.3503C2.78476 13.2301 2.48876 13.0397 2.2485 12.7906C1.99943 12.5473 1.80896 12.2543 1.68878 11.9291C1.58622 11.6654 1.46317 11.2668 1.43101 10.5373C1.39575 9.74609 1.38705 9.50869 1.38705 7.5073C1.38705 5.50591 1.39575 5.26565 1.43101 4.47746C1.46317 3.74489 1.58622 3.34931 1.68878 3.08559C1.80896 2.76028 1.99943 2.46439 2.25148 2.22402C2.4946 1.97495 2.78763 1.78448 3.11293 1.66441C3.37665 1.56185 3.77521 1.4388 4.5048 1.40652C5.29597 1.37138 5.53337 1.36257 7.53465 1.36257C9.53901 1.36257 9.77629 1.37138 10.5646 1.40652C11.2972 1.4388 11.6928 1.56185 11.9565 1.66441C12.2817 1.78448 12.5777 1.97495 12.8179 2.22402C13.067 2.46726 13.2575 2.76028 13.3777 3.08559C13.4802 3.34931 13.6033 3.74776 13.6355 4.47746C13.6707 5.26863 13.6795 5.50591 13.6795 7.5073C13.6795 9.50869 13.6707 9.74311 13.6355 10.5343Z" fill="#0C141A"/>
<path d="M7.52907 3.64807C5.40177 3.64807 3.67578 5.37395 3.67578 7.50136C3.67578 9.62878 5.40177 11.3547 7.52907 11.3547C9.65649 11.3547 11.3824 9.62878 11.3824 7.50136C11.3824 5.37395 9.65649 3.64807 7.52907 3.64807ZM7.52907 10.0009C6.14899 10.0009 5.02954 8.88156 5.02954 7.50136C5.02954 6.12116 6.14899 5.00183 7.52907 5.00183C8.90927 5.00183 10.0286 6.12116 10.0286 7.50136C10.0286 8.88156 8.90927 10.0009 7.52907 10.0009Z" fill="#0C141A"/>
<path d="M12.4321 3.4957C12.4321 3.99247 12.0293 4.39527 11.5324 4.39527C11.0356 4.39527 10.6328 3.99247 10.6328 3.4957C10.6328 2.99881 11.0356 2.59613 11.5324 2.59613C12.0293 2.59613 12.4321 2.99881 12.4321 3.4957V3.4957Z" fill="#0C141A"/>
</svg>
