<svg width="12" height="8" viewBox="0 0 12 8" fill="none" xmlns="http://www.w3.org/2000/svg">
<path d="M5.53171 7.05723L0.192683 1.75462C0.0682927 1.63113 1.37832e-08 1.4689 1.1818e-08 1.29457C9.85291e-09 1.12024 0.0682927 0.955591 0.192683 0.834527L0.585366 0.442279C0.841463 0.188044 1.25854 0.188044 1.51463 0.442279L6 4.89502L10.4878 0.437436C10.6122 0.313951 10.7756 0.246155 10.9512 0.246155C11.1268 0.246155 11.2927 0.313951 11.4146 0.437436L11.8073 0.827263C11.9317 0.950749 12 1.11297 12 1.28731C12 1.46164 11.9317 1.62629 11.8073 1.74735L6.46341 7.05723C6.33902 7.18072 6.17317 7.24851 5.99756 7.24609C5.82195 7.24609 5.6561 7.18072 5.53171 7.05723Z" fill="white"/>
</svg>
