<svg width="12" height="7" viewBox="0 0 12 7" fill="none" xmlns="http://www.w3.org/2000/svg">
<path d="M6.46829 6.81108L11.8073 1.50846C11.9317 1.38498 12 1.22275 12 1.04842C12 0.874084 11.9317 0.709437 11.8073 0.588372L11.4146 0.196124C11.1585 -0.0581109 10.7415 -0.058111 10.4854 0.196124L6 4.64887L1.5122 0.191281C1.38781 0.0677956 1.22439 -4.71017e-07 1.04878 -4.78693e-07C0.873171 -4.86369e-07 0.707317 0.0677955 0.585366 0.191281L0.192683 0.581108C0.068293 0.704594 4.09145e-07 0.86682 4.01525e-07 1.04115C3.93904e-07 1.21548 0.0682929 1.38013 0.192683 1.5012L5.53659 6.81108C5.66098 6.93456 5.82683 7.00236 6.00244 6.99994C6.17805 6.99994 6.3439 6.93456 6.46829 6.81108Z" fill="#FF5357"/>
</svg>
