<svg width="29" height="29" viewBox="0 0 29 29" fill="none" xmlns="http://www.w3.org/2000/svg">
<circle cx="14.5" cy="14.5" r="14.5" fill="white"/>
<path d="M21.6037 18.2741L19.65 16.3205C18.9523 15.6228 17.7661 15.9019 17.487 16.8089C17.2777 17.4369 16.58 17.7858 15.952 17.6462C14.5565 17.2973 12.6727 15.4832 12.3238 14.018C12.1145 13.39 12.5331 12.6922 13.1611 12.4829C14.0681 12.2039 14.3472 11.0177 13.6495 10.32L11.6958 8.36631C11.1376 7.8779 10.3004 7.8779 9.81195 8.36631L8.48626 9.69201C7.16056 11.0875 8.6258 14.7855 11.9052 18.0648C15.1845 21.3442 18.8825 22.8792 20.278 21.4837L21.6037 20.158C22.0921 19.5998 22.0921 18.7626 21.6037 18.2741Z" fill="#0C141A"/>
</svg>
