<svg width="16" height="16" viewBox="0 0 16 16" fill="none" xmlns="http://www.w3.org/2000/svg">
<path d="M4.52551 1.51171L5.47401 1.22581C6.36713 0.956597 7.32137 1.39166 7.70384 2.24246L8.29428 3.55587C8.62029 4.28106 8.44849 5.13332 7.867 5.67557L6.83561 6.63736C6.82286 6.64924 6.8124 6.66337 6.80473 6.67903C6.69686 6.89953 6.86033 7.48866 7.37432 8.37892C7.95364 9.38233 8.40141 9.7794 8.60822 9.71776L9.96215 9.30382C10.7223 9.07142 11.5461 9.34855 12.0112 9.99315L12.8497 11.1553C13.3941 11.9098 13.2962 12.9507 12.6207 13.5904L11.8995 14.2734C11.3901 14.7558 10.6768 14.9583 9.98985 14.8155C7.98006 14.3977 6.17938 12.7792 4.57273 9.99642C2.9645 7.21087 2.46379 4.84025 3.10972 2.88973C3.32911 2.22726 3.85735 1.71311 4.52551 1.51171ZM4.77288 2.33238C4.37198 2.45322 4.05504 2.76171 3.92341 3.15919C3.36684 4.83985 3.81767 6.97434 5.31504 9.56785C6.81097 12.1589 8.43243 13.6163 10.1643 13.9763C10.5765 14.062 11.0045 13.9405 11.3101 13.651L12.0313 12.9681C12.395 12.6236 12.4478 12.0631 12.1546 11.6569L11.3161 10.4947C11.0656 10.1476 10.6221 9.99837 10.2128 10.1235L8.85595 10.5383C8.105 10.7622 7.3992 10.1363 6.63201 8.80749C5.98254 7.68257 5.75707 6.87003 6.03479 6.30236C6.08846 6.19266 6.16177 6.09372 6.25106 6.01046L7.28243 5.0487C7.59554 4.75672 7.68805 4.29781 7.51251 3.90732L6.92206 2.59391C6.71611 2.13579 6.2023 1.90152 5.72139 2.04648L4.77288 2.33238Z" fill="white"/>
</svg>
