<svg width="70" height="70" viewBox="0 0 70 70" fill="none" xmlns="http://www.w3.org/2000/svg">
<g clip-path="url(#clip0)">
<path d="M63.1695 6.63361C60.1167 6.63361 57.5256 8.64652 56.6526 11.4147H13.3474C12.4744 8.64652 9.88326 6.63361 6.83047 6.63361C3.06414 6.63361 0 9.69843 0 13.4654V56.5305C0 58.3566 0.711074 60.0734 2.00211 61.3643C3.29314 62.6552 5.00992 63.3664 6.83594 63.3664H63.1641C66.9334 63.3664 70 60.2998 70 56.5305V13.4654C70 9.69843 66.9359 6.63361 63.1695 6.63361ZM63.1695 10.7352C64.6743 10.7352 65.8984 11.9599 65.8984 13.4654V50.2631C64.299 49.5649 63.2647 49.6945 60.4393 49.6945V13.4654C60.4393 11.96 61.664 10.7352 63.1695 10.7352ZM6.83047 10.7352C8.33602 10.7352 9.56074 11.9599 9.56074 13.4654V49.6945C6.7226 49.6945 5.70145 49.5659 4.10156 50.267V13.4654C4.10156 11.96 5.32574 10.7352 6.83047 10.7352ZM31.984 59.2648V44.4883C31.984 43.6829 31.5126 42.9521 30.7788 42.6199C27.1141 40.9614 24.7461 37.292 24.7461 33.2713C24.7453 29.9919 26.3149 26.9709 28.8477 25.0675V32.1494C28.8477 32.8476 29.203 33.498 29.7906 33.8754L33.8908 36.5072C34.5654 36.94 35.4305 36.9405 36.1054 36.5077L40.2083 33.8774C40.7965 33.5003 41.1522 32.8496 41.1522 32.1509V25.0677C43.6841 26.9709 45.2538 29.992 45.2538 33.272C45.2538 37.2925 42.8863 40.9619 39.2224 42.6202C38.4887 42.9523 38.0172 43.683 38.0172 44.4886V59.2651H31.984V59.2648ZM63.1641 59.2648H42.1189V45.741C46.5552 43.2035 49.3555 38.4455 49.3555 33.2719C49.3555 27.1972 45.5093 21.7572 39.7846 19.735C38.4506 19.2637 37.0508 20.2557 37.0508 21.6686V31.0296L34.9993 32.3448L32.9492 31.0289V21.6686C32.9492 20.2535 31.5476 19.2644 30.2151 19.735C24.4891 21.7583 20.6429 27.1984 20.6445 33.2719C20.6445 38.4452 23.4455 43.2034 27.8824 45.741V59.2648H6.83594C5.32424 59.2648 4.10156 58.0423 4.10156 56.5305C4.10156 55.0227 5.3282 53.7961 6.83594 53.7961H11.6115C12.7441 53.7961 13.6623 52.8779 13.6623 51.7453V15.5162H56.3377V51.7453C56.3377 52.8779 57.2559 53.7961 58.3885 53.7961H63.1641C64.6758 53.7961 65.8984 55.0186 65.8984 56.5305C65.8984 58.0382 64.6718 59.2648 63.1641 59.2648Z" fill="white"/>
</g>
<defs>
<clipPath id="clip0">
<rect width="70" height="70" fill="white"/>
</clipPath>
</defs>
</svg>
