<svg width="70" height="70" viewBox="0 0 70 70" fill="none" xmlns="http://www.w3.org/2000/svg">
<path d="M65.9572 37.1048V34.3342C65.9572 26.8328 63.2398 19.5963 58.3055 13.9575C53.7812 8.78732 47.6667 5.26012 40.9417 3.9498C40.2898 1.67234 38.1903 0 35.7063 0H34.2938C31.8098 0 29.7104 1.67234 29.0583 3.94994C22.3237 5.26203 16.2125 8.79457 11.6945 13.9576C6.7602 19.5963 4.04277 26.8328 4.04277 34.3342V37.1048C1.68656 37.9658 0 40.2298 0 42.8805V46.9875C0 48.1201 0.918203 49.0383 2.05078 49.0383H8.54902C9.59014 60.7701 19.4711 70 31.4691 70H38.5309C50.5288 70 60.4099 60.7701 61.451 49.0383H67.9492C69.0818 49.0383 70 48.1201 70 46.9875V42.8805C70 40.2298 68.3134 37.9658 65.9572 37.1048ZM32.9492 5.44605C32.9492 4.70463 33.5524 4.10156 34.2937 4.10156H35.7062C36.4476 4.10156 37.0506 4.70477 37.0506 5.44605V17.7387C37.0506 18.5871 36.3605 19.2772 35.5121 19.2772H34.4877C33.6394 19.2772 32.9492 18.5871 32.9492 17.7387C32.9492 15.5282 32.9492 6.63893 32.9492 5.44605ZM8.14434 34.3342C8.14434 25.9152 12.1201 18.2435 18.3735 13.2758L19.2951 20.2305C19.4439 21.3525 20.4735 22.1428 21.5976 21.9941C22.7203 21.8453 23.51 20.8145 23.3611 19.6916L22.1762 10.7495C24.2463 9.61488 26.4839 8.74398 28.8477 8.18809V17.7387C28.8477 20.8488 31.3778 23.3789 34.4877 23.3789H35.5121C38.6222 23.3789 41.1523 20.8488 41.1523 17.7388V8.18809C43.5161 8.74385 45.7537 9.61488 47.8239 10.7495L46.6389 19.6916C46.4764 20.9173 47.429 22.0121 48.6745 22.0121C49.6873 22.0121 50.5682 21.262 50.7049 20.2305L51.6265 13.2758C57.8799 18.2435 61.8557 25.9152 61.8557 34.3342V36.7336H41.3626C37.9112 33.1483 32.1092 33.1272 28.6375 36.7336H8.14434V34.3342ZM30.2531 42.8859C30.2531 40.2939 32.3399 38.1391 35 38.1391C37.6588 38.1391 39.7469 40.2938 39.7469 42.8859C39.7469 45.4675 37.6692 47.6328 35 47.6328C32.346 47.6328 30.2531 45.485 30.2531 42.8859ZM4.10156 42.8805C4.10156 41.7527 5.01908 40.8352 6.14687 40.8352H26.3889C26.0675 42.1944 26.0821 43.639 26.3889 44.9367H4.10156V42.8805ZM38.5309 65.8984H31.4691C21.7345 65.8984 13.6954 58.5047 12.6697 49.0383H28.6385C30.2992 50.763 32.5648 51.7344 34.9999 51.7344C37.4347 51.7344 39.6998 50.7633 41.3611 49.0383H57.3303C56.3047 58.5047 48.2655 65.8984 38.5309 65.8984ZM65.8984 44.9367H43.6112C43.9158 43.648 43.9353 42.2052 43.6112 40.8352H63.8531C64.9809 40.8352 65.8984 41.7527 65.8984 42.8805V44.9367Z" fill="white"/>
</svg>
