<svg width="25" height="25" viewBox="0 0 25 25" fill="none" xmlns="http://www.w3.org/2000/svg">
<path d="M12.4999 0C5.60751 0 0 5.60738 0 12.4999C0 19.3925 5.60751 25 12.4999 25C19.3924 25 24.9999 19.3925 24.9999 12.4999C24.9999 5.60738 19.3925 0 12.4999 0ZM19.6776 10.3886L11.8245 18.2417C11.4906 18.5756 11.0468 18.7594 10.5746 18.7594C10.1024 18.7594 9.65855 18.5756 9.32463 18.2417L5.32225 14.2393C4.98834 13.9054 4.80443 13.4615 4.80443 12.9893C4.80443 12.517 4.98834 12.0732 5.32225 11.7392C5.65603 11.4053 6.0999 11.2214 6.57221 11.2214C7.04438 11.2214 7.48838 11.4053 7.82216 11.7394L10.5745 14.4915L17.1774 7.88855C17.5114 7.55464 17.9552 7.37086 18.4274 7.37086C18.8996 7.37086 19.3434 7.55464 19.6774 7.88855C20.3668 8.57803 20.3668 9.69938 19.6776 10.3886Z" fill="#FF1B20"/>
</svg>
