<svg width="25" height="25" viewBox="0 0 25 25" fill="none" xmlns="http://www.w3.org/2000/svg">
<path d="M12.4999 0C5.60751 0 0 5.56029 0 12.395C0 19.2296 5.60751 24.79 12.4999 24.79C19.3924 24.79 24.9999 19.2296 24.9999 12.395C24.9999 5.56029 19.3925 0 12.4999 0ZM19.6776 10.3013L11.8245 18.0885C11.4906 18.4196 11.0468 18.6018 10.5746 18.6018C10.1024 18.6018 9.65855 18.4196 9.32464 18.0885L5.32225 14.1197C4.98834 13.7886 4.80443 13.3484 4.80443 12.8802C4.80443 12.4119 4.98834 11.9718 5.32225 11.6406C5.65604 11.3095 6.0999 11.1272 6.57221 11.1272C7.04438 11.1272 7.48838 11.3095 7.82216 11.6408L10.5745 14.3698L17.1775 7.8223C17.5114 7.49119 17.9552 7.30895 18.4274 7.30895C18.8996 7.30895 19.3435 7.49119 19.6774 7.8223C20.3668 8.50599 20.3668 9.61791 19.6776 10.3013Z" fill="#FF1B20"/>
</svg>
