<svg width="29" height="29" viewBox="0 0 29 29" fill="none" xmlns="http://www.w3.org/2000/svg">
<circle cx="14.5" cy="14.5" r="14.5" fill="white"/>
<path d="M22.8485 18.579C22.8028 18.5032 22.5201 17.8941 21.16 16.6424C19.7362 15.3316 19.9274 15.5445 21.6424 13.278C22.687 11.8977 23.1046 11.0548 22.9739 10.6945C22.8495 10.351 22.0813 10.4416 22.0813 10.4416L19.5269 10.4563C19.5269 10.4563 19.3377 10.431 19.1964 10.5143C19.0593 10.5965 18.9711 10.7861 18.9711 10.7861C18.9711 10.7861 18.5663 11.8545 18.0265 12.7628C16.8885 14.6794 16.4326 14.7806 16.2467 14.6615C15.8142 14.3844 15.9226 13.5467 15.9226 12.9525C15.9226 11.0948 16.2063 10.3204 15.369 10.1202C15.0906 10.0538 14.8866 10.0096 14.1757 10.0022C13.264 9.99271 12.4915 10.0054 12.0548 10.2171C11.7637 10.3583 11.5395 10.6734 11.6765 10.6913C11.8455 10.7134 12.228 10.7935 12.431 11.0675C12.6934 11.4204 12.6839 12.2149 12.6839 12.2149C12.6839 12.2149 12.8347 14.4012 12.3321 14.6731C11.9868 14.8596 11.514 14.4792 10.4992 12.7396C9.97959 11.8493 9.58644 10.8641 9.58644 10.8641C9.58644 10.8641 9.511 10.6808 9.37605 10.5828C9.21241 10.4637 8.98289 10.4258 8.98289 10.4258L6.55384 10.4405C6.55384 10.4405 6.18938 10.4511 6.05549 10.6081C5.93648 10.7482 6.04593 11.0369 6.04593 11.0369C6.04593 11.0369 7.94794 15.4486 10.1007 17.6729C12.0761 19.7117 14.3181 19.5779 14.3181 19.5779H15.3339C15.3339 19.5779 15.641 19.5442 15.7972 19.3766C15.9417 19.2228 15.9364 18.9341 15.9364 18.9341C15.9364 18.9341 15.9162 17.5822 16.5495 17.3831C17.1732 17.1871 17.9744 18.6896 18.8234 19.2681C19.4652 19.7054 19.953 19.6095 19.953 19.6095L22.2237 19.5779C22.2237 19.5779 23.4116 19.5052 22.8485 18.579Z" fill="#0C141A"/>
</svg>
