<svg width="30" height="30" viewBox="0 0 30 30" fill="none" xmlns="http://www.w3.org/2000/svg">
<g clip-path="url(#clip0)">
<path d="M29.6567 27.9991L21.1927 19.5351C25.049 14.8432 24.7866 7.87824 20.4046 3.49625C15.7429 -1.16541 8.15791 -1.16541 3.49625 3.49625C-1.16541 8.15791 -1.16541 15.7429 3.49625 20.4046C7.87707 24.7854 14.8412 25.0507 19.5351 21.1927L27.9991 29.6567C28.4568 30.1144 29.1989 30.1144 29.6567 29.6567C30.1144 29.1989 30.1144 28.4568 29.6567 27.9991ZM18.747 18.747C14.9994 22.4946 8.90152 22.4946 5.15386 18.747C1.40621 14.9993 1.40621 8.90146 5.15386 5.1538C8.9014 1.40632 14.9993 1.40603 18.747 5.1538C22.4947 8.90146 22.4947 14.9993 18.747 18.747Z" fill="white"/>
<path d="M17.689 10.778H13.1222V6.21117C13.1222 5.56383 12.5974 5.03906 11.9501 5.03906C11.3027 5.03906 10.778 5.56383 10.778 6.21117V10.778H6.21117C5.56383 10.778 5.03906 11.3027 5.03906 11.9501C5.03906 12.5974 5.56383 13.1222 6.21117 13.1222H10.778V17.689C10.778 18.3363 11.3027 18.8611 11.9501 18.8611C12.5974 18.8611 13.1222 18.3363 13.1222 17.689V13.1222H17.689C18.3363 13.1222 18.8611 12.5974 18.8611 11.9501C18.8611 11.3027 18.3363 10.778 17.689 10.778Z" fill="white"/>
</g>
<defs>
<clipPath id="clip0">
<rect width="30" height="30" fill="white"/>
</clipPath>
</defs>
</svg>
